<svg width="730" height="642" xmlns="http://www.w3.org/2000/svg">

 <g>
  <title>Layer 1</title>
  <path id="svg_1" fill-opacity="0.5" fill="#27AE60" d="m111.006,178.391c-41.7743,31.166 -71.6653,83.504 -71.9202,143.495c-0.2654,61.972 35.7581,129.996 88.6772,153.379c54.012,23.927 112.313,0.191 166.454,23.491c59.225,25.478 99.673,101.357 160.134,120.108c49.745,15.427 97.325,-13.467 131.096,-50.828c33.772,-37.361 69.077,-80.692 102.479,-119.826c85.994,-100.72 -113.278,-209.312 -137.044,-317.564c-40.248,-183.7827 -318.134,-47.7023 -439.876,47.745z" opacity="0.8"/>
  <path id="svg_2" fill="#108F6E" d="m518.533,327.65l-0.179,-2.469c0,0 1.108,-0.076 2.953,-0.076c1.845,0 4.504,0 7.634,0.305c7.722,0.593 15.366,1.957 22.816,4.072c7.461,2.111 14.672,5.025 21.505,8.691c2.267,1.154 4.472,2.429 6.604,3.818l2.43,1.603l-1.387,2.049l-2.341,-1.451c-2.079,-1.389 -4.233,-2.664 -6.452,-3.817c-6.668,-3.567 -13.704,-6.4 -20.983,-8.45c-7.292,-2.073 -14.773,-3.412 -22.331,-3.995c-3.118,-0.28 -5.663,-0.28 -7.483,-0.28c-1.819,0 -2.786,0 -2.786,0z"/>
  <path id="svg_3" fill="#FCE300" d="m584.842,356.917c-1.785,-1.388 -3.002,-3.378 -3.423,-5.599c-0.247,-1.025 -0.282,-2.09 -0.102,-3.13c0.179,-1.039 0.569,-2.031 1.145,-2.914c0.621,-0.887 1.445,-1.612 2.403,-2.115c0.959,-0.502 2.024,-0.768 3.107,-0.774c2.55,0.028 5.015,0.926 6.986,2.545c1.945,1.666 3.243,3.963 3.664,6.49c0.186,1.053 0.114,2.135 -0.21,3.155c-0.323,1.019 -0.889,1.945 -1.647,2.698c-0.785,0.725 -1.708,1.285 -2.713,1.646c-1.006,0.361 -2.074,0.515 -3.141,0.454c-2.247,-0.089 -4.393,-0.958 -6.069,-2.456l0,0z"/>
  <path id="svg_4" fill="#108F6E" d="m585.719,351.827c0.776,0.377 1.58,0.692 2.405,0.941c1.502,0.575 3.101,0.852 4.708,0.815c-0.043,-1.676 -0.53,-3.309 -1.412,-4.734c-0.468,-0.765 -0.996,-1.493 -1.578,-2.176c2.031,-0.523 3.933,-1.458 5.586,-2.749c0.715,-0.542 1.364,-1.165 1.934,-1.857c-2.333,-1.258 -4.894,-2.037 -7.533,-2.291c-1.88,-0.118 -3.762,0.187 -5.509,0.891c-1.672,0.62 -3.179,1.617 -4.403,2.914c-0.652,1.62 -1.005,3.344 -1.044,5.09c-0.026,1.719 0.193,3.432 0.649,5.09c0.55,2.149 1.543,4.16 2.914,5.904c0.585,-0.669 1.097,-1.399 1.527,-2.176c1.017,-1.726 1.618,-3.664 1.756,-5.662z"/>
  <path id="svg_5" fill="#9F9D9D" d="m341.087,558.896c140.637,0 254.647,-9.566 254.647,-21.365c0,-11.8 -114.01,-21.365 -254.647,-21.365c-140.638,0 -254.6471,9.565 -254.6471,21.365c0,11.799 114.0091,21.365 254.6471,21.365z"/>
  <path id="svg_6" fill="#108F6E" d="m167.878,322.203l-0.903,2.545c0,0 -1.018,-0.356 -2.876,-0.941c-1.858,-0.586 -4.53,-1.362 -7.762,-2.176c-7.919,-2.032 -15.961,-3.549 -24.075,-4.543c-8.109,-0.991 -16.277,-1.416 -24.444,-1.272c-3.334,0.165 -6.121,0.178 -8.0552,0.394l-3.0412,0.305l-0.2673,-2.659l3.1049,-0.305c1.9728,-0.217 4.7968,-0.229 8.1948,-0.408c8.295,-0.143 16.589,0.282 24.826,1.273c8.229,1.016 16.385,2.555 24.419,4.606c3.282,0.827 6.006,1.629 7.889,2.227c1.883,0.598 2.99,0.954 2.99,0.954z"/>
  <path id="svg_7" fill="#FCE300" d="m84.0223,308.398c2.6732,-0.484 5.4313,-0.034 7.813,1.272c1.0037,0.594 1.8582,1.409 2.4979,2.384c0.6396,0.975 1.0475,2.083 1.1922,3.24c0.1046,1.128 -0.0345,2.265 -0.4077,3.334c-0.3732,1.069 -0.9719,2.046 -1.7555,2.863c-1.589,1.876 -3.7958,3.121 -6.2223,3.512c-1.2238,0.202 -2.469,0.241 -3.7029,0.115c-1.1694,-0.158 -2.3021,-0.52 -3.3466,-1.069c-1.0278,-0.51 -1.9405,-1.224 -2.6823,-2.1c-0.7417,-0.875 -1.2969,-1.892 -1.6314,-2.99c-0.2952,-1.112 -0.321,-2.279 -0.0754,-3.403c0.2456,-1.124 0.7557,-2.173 1.4878,-3.061c0.8057,-1.012 1.7835,-1.873 2.8885,-2.545c1.1928,-0.786 2.5363,-1.315 3.9447,-1.552l0,0z"/>
  <path id="svg_8" fill="#108F6E" d="m87.8525,312.711c-0.9007,0.357 -1.7728,0.782 -2.6086,1.272c-1.5765,0.842 -2.8956,2.096 -3.8174,3.627c1.4905,0.892 3.135,1.496 4.8481,1.781c0.9104,0.19 1.8332,0.313 2.7613,0.369c-1.3475,2.859 -1.7443,6.074 -1.1325,9.175c2.2431,-0.941 4.2698,-2.331 5.9552,-4.085c1.356,-1.293 2.4756,-2.813 3.3084,-4.492c0.8731,-1.694 1.4212,-3.537 1.616,-5.433c-0.5068,-1.838 -1.42,-3.538 -2.6722,-4.975c-1.3043,-1.528 -2.8951,-2.786 -4.6827,-3.703c-2.5677,-1.134 -5.3372,-1.74 -8.1438,-1.782c0.1703,0.949 0.4477,1.875 0.8271,2.762c0.8508,2.069 2.1251,3.937 3.7411,5.484l0,0z"/>
  <path id="svg_9" fill="#FFD200" d="m340.031,159.607c0,0 -20.627,-10.179 -24.177,-32.651c-3.551,-22.472 32.193,-30.9341 47.081,6.197c0,0 -2.685,-40.2232 21.81,-44.6132c24.495,-4.39 20.538,44.5362 13.107,52.3242c0,0 10.281,-7.457 20.359,-1.273c10.078,6.185 6.833,30.425 -25.704,36.902c-32.537,6.477 -52.476,-16.886 -52.476,-16.886z"/>
  <path id="svg_10" fill="white" d="m362.515,165.83c-5.726,-12.636 -16.109,-26.162 -16.211,-26.302l0.572,-0.433c0.102,0.14 10.536,13.717 16.288,26.429l-0.649,0.306z"/>
  <path id="svg_11" fill="white" d="m388.085,114.195l-8.544,49.466l0.702,0.121l8.544,-49.466l-0.702,-0.121z"/>
  <path id="svg_12" fill="#BCE13E" d="m222.327,203.901c0,0 -8.5,-18.641 -26.035,-18.629c-17.534,0.013 -20.054,18.502 -9.811,32.245c-12.297,-7.582 -26.576,-11.325 -41.011,-10.752c-24.177,0.928 -41.992,18.807 -36.8,38.784c5.191,19.978 32.244,24.534 39.955,22.434c0,0 -26.632,18.922 -16.122,36.1c10.511,17.178 43.468,0 43.468,0l46.356,-100.182z"/>
  <path id="svg_13" fill="white" d="m186.952,252.434c-0.292,-0.127 -30.119,-12.419 -45.363,-13.934l0.14,-1.425c15.447,1.54 45.478,13.908 45.809,13.997l-0.586,1.362z"/>
  <path id="svg_14" fill="white" d="m142.072,252.345l-0.839,-1.145c5.98,-4.39 17.814,-8.793 18.298,-8.908l0.496,1.273c-0.127,0.102 -12.127,4.517 -17.955,8.78z"/>
  <path id="svg_15" fill="white" d="m173.21,246.899c-0.166,-0.471 -4.11,-11.351 -4.454,-15.779l1.425,-0.115c0.331,4.238 4.327,15.27 4.365,15.397l-1.336,0.497z"/>
  <path id="svg_16" fill="white" d="m147.76,296.016l-0.712,-1.273c14.837,-8.652 26.62,-10.408 26.721,-10.434l0.191,1.425c-0.089,0.051 -11.605,1.782 -26.2,10.282z"/>
  <path id="svg_17" fill="white" d="m211.638,223.396c-0.471,-0.522 -11.554,-12.61 -14.582,-22.446l1.374,-0.42c2.927,9.531 14.15,21.772 14.252,21.886l-1.044,0.98z"/>
  <path id="svg_18" fill="#FFD200" d="m137.135,336.226l-1.171,-8.716c-4.898,-0.69 -9.839,-1.039 -14.786,-1.043c-13.808,-0.147 -27.5175,2.349 -40.3879,7.354l-0.4708,6.185l-2.9649,-4.658c-1.9723,0.904 -3.8174,1.871 -5.6625,2.927l1.8705,11.452l-6.8204,-8.233c-5.0122,3.412 -9.1424,7.965 -12.0503,13.285c-2.5592,4.927 -3.324,10.591 -2.1632,16.02c0.9399,4.669 3.1403,8.99 6.3623,12.496c1.592,1.737 3.3764,3.286 5.319,4.619c2.0697,1.409 4.2682,2.619 6.5659,3.614c9.4799,4.148 21.8229,5.675 35.1453,4.695l3.143,-10.039l4.34,9.2c3.015,-0.433 6.069,-0.968 9.11,-1.655l-0.839,-5.993l4.988,5.014c1.17,-0.306 2.354,-0.624 3.524,-0.955c21.098,-6.108 34.421,-16.109 42.45,-24.66c8.029,-8.551 10.791,-15.588 10.791,-15.588c0,0 -12.127,-17.115 -41.928,-23.095l-4.365,7.774z"/>
  <path id="svg_19" fill="white" d="m173.72,350.943l-98.1055,18.519l0.2644,1.401l98.1051,-18.52l-0.264,-1.4z"/>
  <path id="svg_20" fill="white" d="m108.772,364.628c-6.986,-0.407 -20.8434,-6.452 -21.4287,-6.719l0.5726,-1.272c0.1399,0 14.2011,6.197 20.9451,6.578l-0.089,1.413z"/>
  <path id="svg_21" fill="white" d="m114.396,375.622l-1.387,-0.357c1.502,-5.967 9.238,-13.997 9.556,-14.289l1.018,1.03c0,0 -7.787,8.004 -9.187,13.616z"/>
  <path id="svg_22" fill="white" d="m147.238,357.337c-8.016,-1.846 -16.402,-10.333 -16.758,-10.689l1.031,-1.005c0.076,0.089 8.436,8.551 16.058,10.294l-0.331,1.4z"/>
  <path id="svg_23" fill="#FFD200" d="m530.774,420.718l-1.883,8.36c16.172,8.665 34.27,13.107 52.616,12.916l2.545,-5.472l1.133,5.268c2.112,-0.161 4.174,-0.415 6.184,-0.763l2.151,-11.083l3.448,9.849c5.742,-1.417 11.064,-4.183 15.524,-8.068c4.023,-3.661 6.642,-8.612 7.406,-13.997c0.716,-4.592 0.162,-9.291 -1.603,-13.59c-0.874,-2.128 -1.984,-4.151 -3.309,-6.032c-1.413,-1.995 -3.015,-3.848 -4.784,-5.535c-7.253,-7.011 -18.044,-12.585 -30.54,-16.211l-6.286,8.105l-0.89,-9.925c-2.902,-0.623 -5.892,-1.17 -8.908,-1.578l-1.272,5.777l-2.863,-6.273c-1.171,-0.127 -2.354,-0.229 -3.55,-0.318c-21.365,-1.578 -36.902,3.067 -47.184,8.169c-10.281,5.103 -15.155,10.613 -15.155,10.613c0,0 5.281,19.761 30.54,35.323l6.68,-5.535z"/>
  <path id="svg_24" fill="white" d="m502.472,393.434l-0.239,1.405l96.029,16.328l0.239,-1.405l-96.029,-16.328z"/>
  <path id="svg_25" fill="white" d="m582.691,418.746c-0.115,-0.102 -10.905,-10.472 -16.924,-13.119l0.573,-1.273c6.26,2.749 16.885,12.98 17.343,13.412l-0.992,0.98z"/>
  <path id="svg_26" fill="white" d="m552.482,403.018l-0.623,-1.273c0.102,0 9.862,-4.721 13.03,-9.378l1.183,0.815c-3.397,4.949 -13.182,9.632 -13.59,9.836z"/>
  <path id="svg_27" fill="white" d="m539.083,414.012c0,-0.114 -4.822,-10.689 -11.198,-14.862l0.789,-1.196c6.719,4.402 11.453,15.015 11.72,15.473l-1.311,0.585z"/>
  <path id="svg_28" fill="#BCE13E" d="m461.616,485.281l-18.854,48.987l2.815,1.083l18.853,-48.987l-2.814,-1.083z"/>
  <path id="svg_29" fill="#BCE13E" d="m464.429,485.367l-2.815,1.084l18.853,48.986l2.815,-1.083l-18.853,-48.987z"/>
  <path id="svg_30" fill="#BCE13E" d="m471.49,504.79l-16.301,0l0,3.016l16.301,0l0,-3.016z"/>
  <path id="svg_31" fill="#BCE13E" d="m475.052,515.555l-23.617,0l0,3.016l23.617,0l0,-3.016z"/>
  <path id="svg_32" fill="#91B31E" d="m133.623,534.91c0.361,1.254 0.933,2.438 1.692,3.499c1.273,1.705 3.131,3.818 3.36,4.734c0.229,0.916 -0.878,1.743 -1.934,1.374c-3.617,-1.465 -7.118,-3.2 -10.473,-5.192c-1.781,-1.374 -2.29,-1.87 -2.239,-2.201c0.858,-1.746 1.809,-3.446 2.85,-5.09c0.636,-0.967 5.408,-0.942 6.744,2.876z"/>
  <path id="svg_33" fill="#91B31E" d="m153.461,524.73c0.921,0.927 1.993,1.693 3.168,2.265c1.896,0.904 4.568,1.858 5.205,2.545c0.636,0.687 0,1.96 -1.031,2.138c-3.878,0.438 -7.782,0.587 -11.681,0.445c-2.227,-0.356 -2.914,-0.56 -3.029,-0.865c-0.098,-1.95 -0.098,-3.903 0,-5.853c0.165,-1.133 4.377,-3.385 7.368,-0.675z"/>
  <path id="svg_34" fill="#0E1A34" d="m153.817,457.747c0,0 3.677,24.648 3.817,31.099c0.14,6.451 -3.817,36.304 -3.817,36.304l-7.775,0c0,0 0.751,-14.545 0.751,-16.822c0,-2.278 -0.751,-22.141 -0.751,-22.141l0.751,-27.639c0,0 4.555,-2.799 7.024,-0.801z"/>
  <path id="svg_35" fill="#0E1A34" d="m135.824,458.613c0,0 -2.43,6.362 -1.679,19.354c0.751,12.992 1.387,16.071 1.387,16.071c0,0 -8.717,33.899 -9.862,37.945c2.52,1.74 5.432,2.829 8.475,3.169l12.521,-30.87c2.877,-6.578 4.334,-13.689 4.275,-20.869c0,-7.088 0.789,-26.187 0.789,-26.187l-15.906,1.387z"/>
  <path id="svg_36" fill="white" d="m147.76,502.513l-0.687,-0.216c2.58,-8.952 3.827,-18.234 3.703,-27.549l0.712,0c0.122,9.387 -1.134,18.742 -3.728,27.765l0,0z"/>
  <path id="svg_37" fill="#FF9A5C" d="m159.9,454.197c0,0 -16.021,-2.761 -21.836,-5.981c-5.815,-3.219 -5.09,-6.069 -4.288,-8.131c0.802,-2.061 3.308,-6.426 3.308,-6.426l5.676,4.059l-0.14,1.273l-0.967,2.214c0,0 1.857,1.171 4.657,2.723c2.799,1.552 14.175,6.782 14.175,6.782c0,0 2.774,2.278 -0.585,3.487z"/>
  <path id="svg_38" fill="#FF9A5C" d="m159.467,454.07c0.872,0.896 1.898,1.629 3.028,2.163c0.115,1.082 0.751,1.54 1.095,1.502c0.343,-0.038 0.356,-1.667 0.356,-1.667c0.318,0.751 1.54,1.501 1.705,1.043c0.097,-0.397 0.097,-0.811 0,-1.209c0,0 0.509,0.662 0.878,0.662c0.369,0 0.84,-0.331 0.674,-1.171c-0.225,-0.978 -0.621,-1.908 -1.17,-2.748c-0.497,-0.662 -0.789,-1.273 -1.871,-1.578c-0.896,-0.143 -1.803,-0.211 -2.71,-0.204c-1.042,-0.069 -2.088,-0.069 -3.13,0l1.145,3.207z"/>
  <path id="svg_39" fill="#753519" d="m147.658,403.273c0,0 -2.138,-4.645 -8.156,-2.889c-6.019,1.756 -4.149,7.406 -8.03,9.786c-3.881,2.379 -9.67,3.639 -11.172,10.294c-1.501,6.655 3.143,7.151 0,11.16c-3.143,4.008 -4.263,6.909 -0.878,11.045c3.385,4.135 9.353,2.888 13.081,0.878c3.728,-2.011 20.042,-9.658 20.042,-9.658c1.052,-1.123 1.637,-2.604 1.637,-4.142c0,-1.539 -0.585,-3.02 -1.637,-4.142c-3.818,-4.276 -2.762,-10.791 -2.762,-10.791c0,0 1.387,-0.254 1.884,-4.021c0.496,-3.766 -0.7,-8.665 -4.009,-7.52z"/>
  <path id="svg_40" fill="#FF9A5C" d="m443.381,88.0181l2.138,-1.5142c5.335,6.0653 11.768,11.0689 18.96,14.7481c11.795,5.942 15.842,8.22 16.911,8.411c1.069,0.191 6.146,1.069 7.902,3.308c1.756,2.24 1.947,3.512 1.565,3.614c-0.382,0.102 -2.341,-2.71 -2.341,-2.71c0,0 1.946,2.545 1.756,3.461c-0.191,0.916 -1.273,-0.662 -1.68,-1.056c-0.407,-0.395 -1.374,-1.527 -1.374,-1.527c0.873,1.072 1.596,2.258 2.15,3.525c0.076,0.814 -1.272,-0.242 -2.341,-1.413c-1.069,-1.171 -2.24,-1.718 -2.545,-1.374c-0.306,0.343 -0.395,1.807 -0.827,1.527c-0.433,-0.28 -0.509,-1.362 -0.7,-2.151c-0.7,0 -3.818,-1.158 -9.595,-2.303c-5.777,-1.145 -28.617,-11.198 -33.835,-17.6745c-5.217,-6.4769 3.856,-6.8714 3.856,-6.8714z"/>
  <path id="svg_41" fill="#BCE13E" d="m588.392,322.929c1.924,-2.168 3.183,-4.846 3.626,-7.711c0.23,-2.813 -0.41,-5.629 -1.832,-8.067l1.679,1.781c0.98,1.082 2.367,2.469 3.652,3.945l4.849,6.133c-1.939,2.234 -3.283,4.922 -3.907,7.813c-0.604,2.764 -0.383,5.644 0.636,8.284c2.152,-1.877 3.694,-4.354 4.428,-7.113c0.335,-1.339 0.46,-2.721 0.369,-4.098c-0.06,-1.463 -0.402,-2.902 -1.005,-4.237l0.84,1.069c0.484,0.662 1.069,1.59 1.667,2.545l2.418,3.639c0.013,1.49 0.232,2.972 0.649,4.403c0.306,1.379 0.807,2.707 1.488,3.944c1.507,2.564 3.714,4.643 6.363,5.994l0,0c0.312,-2.979 -0.259,-5.984 -1.642,-8.64c-0.658,-1.283 -1.517,-2.451 -2.545,-3.461c-1.171,-1.002 -2.477,-1.833 -3.881,-2.469c0,0 -0.61,-0.903 -1.514,-2.278l-1.54,-2.328c-0.28,-0.433 -0.572,-0.866 -0.878,-1.273l-1.005,-1.272l-5.421,-6.846c2.33,1.778 5.096,2.894 8.008,3.232c2.911,0.339 5.859,-0.114 8.535,-1.311l0,0c-2.302,-2.236 -5.233,-3.714 -8.399,-4.237c-2.982,-0.422 -6.021,0.169 -8.627,1.68l-5.383,-5.714c-1.224,-1.317 -2.524,-2.562 -3.893,-3.728l-1.82,-1.654c1.306,0.693 2.696,1.215 4.135,1.552c1.381,0.296 2.788,0.458 4.2,0.484c2.916,-0.015 5.775,-0.819 8.271,-2.329l0,0c-1.332,-0.994 -2.791,-1.803 -4.339,-2.405c-1.444,-0.521 -2.97,-0.78 -4.505,-0.763c-3.037,0.035 -5.981,1.058 -8.386,2.913l-1.819,-1.654l-4.263,-3.295c-1.552,-1.197 -3.092,-2.418 -4.352,-3.182l-2.049,-1.348c1.399,0.482 2.852,0.786 4.327,0.903c1.389,0.185 2.797,0.185 4.186,0c2.907,-0.449 5.642,-1.661 7.928,-3.512c-2.807,-1.578 -6.036,-2.245 -9.238,-1.909c-3.012,0.473 -5.786,1.916 -7.902,4.11l-2.049,-1.348c-1.273,-0.802 -2.99,-1.706 -4.683,-2.685l-2.545,-1.413l-2.265,-1.081l-2.214,-1.057c2.842,0.545 5.772,0.41 8.551,-0.394c2.816,-0.856 5.352,-2.451 7.342,-4.619l0,0c-1.595,-0.609 -3.263,-1.003 -4.962,-1.171c-0.767,-0.064 -1.537,-0.064 -2.303,0c-0.754,0.097 -1.499,0.254 -2.227,0.471c-2.902,0.886 -5.433,2.701 -7.202,5.166l-1.031,-0.483l-2.8,-1.145c-2.303,-0.993 -5.459,-2.087 -8.627,-3.118c-3.168,-1.031 -6.426,-1.794 -8.907,-2.252c-1.362,-0.292 -2.738,-0.513 -4.123,-0.662l0,0.407c0,0 1.158,0.115 2.888,0.433c1.731,0.318 4.034,0.814 6.299,1.4c2.265,0.585 4.53,1.272 6.184,1.883l2.774,0.941c-0.446,2.933 -0.148,5.93 0.866,8.717c0.996,2.595 2.66,4.882 4.822,6.629l0,0c0.858,-2.734 0.885,-5.661 0.077,-8.411c-0.888,-2.702 -2.641,-5.036 -4.988,-6.642l2.265,0.916c1.361,0.573 3.193,1.273 4.937,2.138c1.743,0.865 3.537,1.667 4.835,2.341l2.138,1.273c-0.886,2.808 -1.027,5.799 -0.407,8.678c0.554,2.744 1.878,5.273 3.817,7.291l0,0c1.245,-2.566 1.688,-5.448 1.273,-8.271c-0.221,-1.359 -0.651,-2.677 -1.273,-3.906c-0.716,-1.26 -1.616,-2.405 -2.672,-3.398l2.125,1.196c1.272,0.675 2.901,1.82 4.543,2.876c2.2,1.391 4.324,2.899 6.362,4.518c-1.291,2.651 -1.861,5.596 -1.654,8.538c0.176,2.798 1.113,5.495 2.71,7.8l0,0c1.604,-2.376 2.464,-5.175 2.469,-8.042c-0.006,-1.383 -0.243,-2.754 -0.7,-4.059c-0.541,-1.342 -1.274,-2.598 -2.176,-3.728l1.947,1.488c1.42,1.092 2.784,2.255 4.085,3.487l3.906,3.525c0.451,0.396 0.876,0.821 1.272,1.272l0.459,0.484c-1.658,2.466 -2.649,5.32 -2.876,8.283c-0.089,1.358 0.022,2.722 0.331,4.047c0.263,1.414 0.699,2.79 1.298,4.097l0,0z"/>
  <path id="svg_42" fill="#91B31E" d="m141.462,144.223c-2.497,2.358 -4.263,5.383 -5.09,8.716c-0.743,3.323 -0.423,6.795 0.916,9.925l-1.718,-2.354c-1.056,-1.387 -2.38,-3.321 -3.665,-5.255l-3.575,-5.319c-0.497,-0.725 -0.878,-1.349 -1.146,-1.781l-0.407,-0.687c2.566,-2.45 4.418,-5.551 5.357,-8.971c0.422,-1.61 0.597,-3.275 0.522,-4.938c-0.023,-1.722 -0.275,-3.434 -0.751,-5.089l0,0c-2.674,2.129 -4.68,4.982 -5.777,8.22c-0.939,3.256 -0.873,6.72 0.191,9.938l-2.736,-4.428c-0.674,-1.12 -1.374,-2.215 -1.845,-3.067l-0.776,-1.425c0.269,-3.485 -0.441,-6.975 -2.049,-10.078c-1.584,-3.139 -4.035,-5.758 -7.062,-7.546c-0.609,3.519 -0.166,7.14 1.273,10.409c1.634,3.177 4.2,5.779 7.354,7.456l0.42,0.789c0.268,0.497 0.662,1.209 1.184,2.036l3.728,6.096c1.273,2.239 2.8,4.377 3.818,5.993l1.806,2.697c-2.556,-2.294 -5.672,-3.874 -9.034,-4.58c-3.398,-0.695 -6.921,-0.435 -10.18,0.75l0,0c1.283,1.429 2.756,2.675 4.377,3.703c1.525,0.918 3.188,1.584 4.925,1.973c3.512,0.754 7.171,0.398 10.472,-1.018l1.629,2.417l3.818,5.192c2.71,3.817 5.624,7.457 5.624,7.457c-1.38,-1.082 -2.899,-1.972 -4.517,-2.647c-1.514,-0.677 -3.117,-1.135 -4.759,-1.362c-3.45,-0.417 -6.948,0.116 -10.117,1.54l0,0c2.63,2.574 5.973,4.299 9.595,4.95c3.562,0.505 7.194,-0.09 10.409,-1.705l1.794,2.303c1.056,1.4 2.545,3.194 4.034,4.988l4.084,4.95l1.922,2.214c-2.784,-2.05 -6.092,-3.269 -9.54,-3.515c-3.449,-0.245 -6.896,0.493 -9.942,2.128l0,0c2.782,2.385 6.201,3.903 9.836,4.365c3.58,0.323 7.173,-0.459 10.295,-2.24l1.908,2.214c1.133,1.273 2.672,3.08 4.263,4.797l4.314,4.76l1.998,2.125c-2.869,-1.922 -6.225,-2.988 -9.677,-3.074c-3.452,-0.086 -6.857,0.813 -9.818,2.59l0,0c6.363,4.772 13.616,5.166 20.169,1.196l3.41,3.614c2.087,2.112 4.823,4.988 7.635,7.762c2.812,2.774 5.662,5.548 7.838,7.635c2.176,2.087 3.64,3.372 3.64,3.372l0.331,-0.369c0,0 -4.161,-3.754 -8.157,-7.635c-2.023,-1.947 -3.983,-3.945 -5.484,-5.421l-2.456,-2.545c2.008,-2.935 3.138,-6.383 3.257,-9.938c0.071,-3.506 -0.875,-6.957 -2.723,-9.938l0,0c-2.134,2.687 -3.399,5.96 -3.626,9.384c-0.227,3.423 0.594,6.835 2.354,9.78c0,0 -3.271,-3.321 -6.439,-6.744c-1.616,-1.68 -3.181,-3.411 -4.352,-4.708l-1.959,-2.164c2.147,-2.803 3.423,-6.175 3.669,-9.697c0.247,-3.523 -0.547,-7.04 -2.282,-10.115l0,0c-2.243,2.595 -3.64,5.813 -4.006,9.223c-0.367,3.411 0.316,6.852 1.957,9.864l-1.947,-2.176l-4.199,-4.848c-1.553,-1.743 -3.029,-3.537 -4.136,-4.899l-1.858,-2.252c2.245,-2.745 3.674,-6.065 4.123,-9.582c0.415,-3.463 -0.195,-6.972 -1.756,-10.091c-2.302,2.532 -3.826,5.673 -4.39,9.048c-0.531,3.369 -0.016,6.82 1.476,9.887l-1.794,-2.253l-3.945,-5.089c-2.926,-3.652 -5.624,-7.457 -5.624,-7.457c2.4,-2.61 4.018,-5.842 4.67,-9.327c0.588,-3.412 0.213,-6.919 -1.081,-10.129l0,0z"/>
  <path id="svg_43" fill="#FF9A5C" d="m379.528,99.8772c-0.674,-0.3859 -1.284,-0.8754 -1.807,-1.4506c-0.276,-0.5622 -0.656,-1.0673 -1.119,-1.4888c-0.518,-0.3958 -1.126,-0.6581 -1.769,-0.7635c0.284,1.0625 0.777,2.0576 1.451,2.9267c0.147,0.1132 0.332,0.1658 0.516,0.1469c0.185,-0.019 0.355,-0.108 0.476,-0.2487c0.347,0.8224 0.805,1.5928 1.362,2.2908c0,0 2.074,-0.738 0.89,-1.4128z"/>
  <path id="svg_44" fill="#1A6652" d="m341.672,523.05c100.454,0 181.887,-81.433 181.887,-181.887c0,-100.453 -81.433,-181.887 -181.887,-181.887c-100.453,0 -181.887,81.434 -181.887,181.887c0,100.454 81.434,181.887 181.887,181.887z"/>
  <path id="svg_45" fill="#19614F" d="m378.256,468.512c-35.873,-0.004 -70.738,-11.871 -99.165,-33.752c-28.427,-21.882 -48.82,-52.549 -58.004,-87.226c-9.184,-34.678 -6.644,-71.419 7.226,-104.502c13.87,-33.083 38.291,-60.651 69.459,-78.411c-31,7.695 -59.429,23.415 -82.428,45.579c-23,22.164 -39.76,49.992 -48.596,80.686c-8.836,30.695 -9.437,63.175 -1.742,94.175c7.695,31 23.415,59.429 45.579,82.428c22.164,23 49.991,39.76 80.686,48.597c30.694,8.836 63.174,9.437 94.174,1.743c31,-7.695 59.429,-23.414 82.429,-45.578c23,-22.163 39.761,-49.991 48.597,-80.685c-14.571,23.541 -34.918,42.967 -59.108,56.434c-24.19,13.467 -51.421,20.528 -79.107,20.512l0,0z"/>
  <path id="svg_46" fill="#FF9A5C" d="m403.323,100.221c0,0 -4.339,3.919 -5.802,3.919c-1.463,0 -15.919,-4.3386 -18.642,-4.9112c-2.723,-0.5727 -2.545,0.2926 -3.664,1.0052c-1.12,0.713 2.303,2.889 2.303,2.889c0,0 12.928,6.591 19.647,8.207c6.718,1.616 12.025,-3.817 12.025,-3.817c0,0 1.705,-7.075 -5.867,-7.292z"/>
  <path id="svg_47" fill="#108F6E" d="m351.356,104.191c0,0 10.179,1.107 17.165,-0.674c0,0 4.352,7.291 5.994,9.988l-0.713,3.487c-2.067,2.349 -4.58,4.263 -7.394,5.63c-2.814,1.368 -5.872,2.162 -8.995,2.336c0,0 -7.623,-10.549 -6.057,-20.767z"/>
  <path id="svg_48" fill="#108F6E" d="m367.3,116.508c-1.294,-0.003 -2.569,-0.304 -3.729,-0.878l0.726,-1.272c0.821,0.401 1.716,0.628 2.629,0.668c0.913,0.039 1.824,-0.11 2.677,-0.439c2.367,-1.018 4.148,-3.665 5.281,-7.851c1.272,-4.759 0.636,-8.5641 -1.871,-11.0073c-2.914,-2.8376 -7.571,-3.1048 -10.879,-2.0995c-6.795,2.0486 -6.096,11.5798 -6.096,11.6688l-1.501,0.127c0,-0.115 -0.802,-10.8415 7.164,-13.2337c4.492,-1.3616 9.454,-0.369 12.368,2.4559c2.036,1.985 4.085,5.7518 2.265,12.4828c-1.272,4.67 -3.334,7.635 -6.158,8.907c-0.917,0.351 -1.896,0.511 -2.876,0.471z"/>
  <path id="svg_49" fill="#FF9A5C" d="m375.189,98.0958c0,0 -1.273,-0.4962 -1.832,0.3945c-0.56,0.8908 1.641,1.6417 3.486,1.4634c1.845,-0.1782 0.191,-1.527 -1.654,-1.8579z"/>
  <path id="svg_50" fill="#FF9A5C" d="m375.151,99.4066c-0.364,-0.1074 -0.746,-0.1323 -1.121,-0.0729c-0.374,0.0595 -0.73,0.2018 -1.042,0.4165c-0.878,0.7508 1.946,1.8198 4.097,1.6288c2.15,-0.191 0.229,-1.6288 -1.934,-1.9724z"/>
  <path id="svg_51" fill="#91B31E" d="m416.252,206.663c-0.403,1.406 -1.044,2.732 -1.896,3.919c-1.387,1.896 -3.5,4.263 -3.818,5.294c-0.318,1.031 0.967,1.947 2.151,1.54c1.183,-0.408 9.721,-4.263 11.719,-5.803c1.998,-1.54 2.545,-2.112 2.545,-2.468c-0.965,-1.959 -2.031,-3.866 -3.194,-5.714c-0.636,-1.069 -5.98,-1.031 -7.507,3.232z"/>
  <path id="svg_52" fill="#FF9A5C" d="m374.896,100.628c-0.326,-0.107 -0.676,-0.125 -1.011,-0.051c-0.336,0.074 -0.646,0.237 -0.897,0.471c-0.789,0.814 1.718,1.909 3.639,1.705c1.921,-0.204 1.018,-1.985 -1.731,-2.125z"/>
  <path id="svg_53" fill="#108F6E" d="m352.45,114.803c0,0 -27.994,-6.362 -29.012,-6.362c-1.018,0 -4.518,-0.649 -6.197,1.667c0.123,0.476 0.348,0.92 0.66,1.3c0.312,0.38 0.704,0.688 1.147,0.901c1.552,0.777 3.613,-0.763 3.613,-0.763l33.785,11.948c0.59,-1.684 0.503,-3.531 -0.242,-5.152c-0.746,-1.622 -2.091,-2.89 -3.754,-3.539l0,0z"/>
  <path id="svg_54" fill="#108F6E" d="m320.027,112.92c-0.392,0.004 -0.779,-0.083 -1.132,-0.254c-0.494,-0.233 -0.93,-0.573 -1.276,-0.996c-0.345,-0.423 -0.592,-0.917 -0.722,-1.447l0,-0.357l0.344,0c0.349,-0.053 0.702,-0.078 1.056,-0.076c1.662,-0.025 3.282,0.518 4.593,1.54l0.357,0.292l-0.369,0.28c-0.839,0.594 -1.825,0.946 -2.851,1.018zm-2.316,-2.468c0.291,0.692 0.825,1.253 1.502,1.577c0.254,0.12 0.533,0.181 0.814,0.179c0.714,-0.047 1.405,-0.27 2.011,-0.649c-1.13,-0.75 -2.461,-1.141 -3.818,-1.12l-0.509,0.013z"/>
  <path id="svg_55" fill="#FFD200" d="m499.331,485.869l-50.415,0l8.513,-9.798l50.415,0l-8.513,9.798z"/>
  <path id="svg_56" fill="#9AE5E5" d="m317.241,110.146c0,0 -19.851,19.838 -17.204,43.531l24.024,0c0,0 -5.93,-29.266 -1.4,-42.093c-0.749,-0.612 -1.62,-1.056 -2.555,-1.304c-0.934,-0.248 -1.911,-0.294 -2.865,-0.134z" opacity="0.79"/>
  <path id="svg_57" fill="#0E1A34" d="m414.355,126.383c0,0 -19.418,15.346 -21.632,20.665c-2.214,5.319 8.755,16.657 8.755,16.657c0,0 10.371,36.901 13.997,43.073c3.031,-0.803 5.969,-1.92 8.767,-3.334c0,0 -3.461,-33.326 -5.089,-37.767c0,0 25.182,-23.553 29.495,-30.539c4.314,-6.986 -31.302,-11.173 -34.293,-8.755z"/>
  <path id="svg_58" fill="#91B31E" d="m427.22,187.105c0.25,1.44 0.25,2.912 0,4.352c-0.382,2.316 -1.272,5.37 -0.98,6.363c0.099,0.248 0.262,0.467 0.471,0.634c0.21,0.167 0.459,0.277 0.724,0.318c0.264,0.041 0.535,0.012 0.786,-0.083c0.25,-0.096 0.471,-0.255 0.641,-0.462c0.878,-0.904 6.769,-8.17 7.876,-10.447c1.107,-2.278 1.349,-3.041 1.133,-3.334c-1.74,-1.323 -3.549,-2.55 -5.421,-3.678c-1.056,-0.585 -5.815,1.82 -5.23,6.337z"/>
  <path id="svg_59" fill="white" d="m401.122,163.717c-0.242,-8.207 13.475,-21.441 14.061,-21.988l0.496,0.509c-0.14,0.14 -14.074,13.565 -13.845,21.454l-0.712,0.025z"/>
  <path id="svg_60" fill="#0E1A34" d="m402.967,165.537l23.923,21.785c1.914,-2.011 3.663,-4.172 5.229,-6.464c0,0 -8.716,-16.975 -12.317,-20.436c-3.601,-3.461 -16.835,5.115 -16.835,5.115z"/>
  <path id="svg_61" fill="#91B31E" d="m475.778,472.711c-0.959,1.099 -2.099,2.024 -3.372,2.736c-2.061,1.133 -4.975,2.38 -5.65,3.207c-0.674,0.827 0.064,2.189 1.273,2.316c1.209,0.127 10.599,0.242 13.068,-0.306c2.469,-0.547 3.219,-0.814 3.334,-1.158c-0.048,-2.187 -0.209,-4.37 -0.484,-6.54c-0.152,-1.247 -5,-3.487 -8.169,-0.255z"/>
  <path id="svg_62" fill="#108F6E" d="m312.367,157.966l-1.45,0c0,0 0,-0.573 -0.14,-1.617c-0.14,-1.043 -0.357,-2.544 -0.726,-4.3c-0.967,-4.329 -2.379,-8.546 -4.211,-12.585c-1.813,-4.057 -4.002,-7.934 -6.541,-11.58c-0.98,-1.539 -1.96,-2.697 -2.545,-3.55l-1.018,-1.272l1.133,-0.904l1.03,1.273c0.649,0.865 1.642,2.048 2.647,3.613c2.582,3.723 4.814,7.676 6.668,11.809c1.872,4.135 3.317,8.449 4.313,12.877c0.369,1.82 0.624,3.36 0.738,4.441c0.115,1.082 0.102,1.795 0.102,1.795z"/>
  <path id="svg_63" fill="#FCE300" d="m295.647,114.88c2.137,2.418 2.227,5.675 0.254,7.253c-1.099,0.657 -2.39,0.918 -3.658,0.739c-1.268,-0.179 -2.436,-0.787 -3.31,-1.724c-0.873,-0.936 -1.4,-2.143 -1.491,-3.421c-0.091,-1.277 0.258,-2.547 0.99,-3.598c1.718,-1.87 4.962,-1.527 7.215,0.751z"/>
  <path id="svg_64" fill="#108F6E" d="m294.769,117.896c-0.403,-0.312 -0.828,-0.592 -1.273,-0.84c-0.871,-0.447 -1.833,-0.686 -2.812,-0.7c-0.012,0.951 0.197,1.892 0.611,2.749c0.18,0.476 0.393,0.939 0.636,1.386c-1.711,0.206 -3.31,0.96 -4.556,2.151c1.946,1.395 4.34,2.02 6.719,1.756c1.021,-0.094 2.015,-0.384 2.927,-0.853c0.689,-0.785 1.202,-1.709 1.501,-2.71c0.324,-1.26 0.378,-2.575 0.158,-3.858c-0.219,-1.282 -0.706,-2.504 -1.43,-3.586c-1.264,1.216 -2.129,2.787 -2.481,4.505l0,0z"/>
  <path id="svg_65" fill="#91B31E" d="m502.843,453.23c0.052,1.461 -0.146,2.92 -0.585,4.314c-0.738,2.239 -2.011,5.09 -1.934,6.197c0.06,0.263 0.188,0.505 0.372,0.703c0.183,0.198 0.415,0.345 0.673,0.424c0.258,0.08 0.532,0.091 0.795,0.032c0.263,-0.06 0.506,-0.187 0.705,-0.37c0.992,-0.751 7.915,-7.063 9.34,-9.149c1.425,-2.087 1.794,-2.8 1.628,-3.131c-1.522,-1.565 -3.128,-3.048 -4.809,-4.441c-1.018,-0.789 -6.083,0.904 -6.185,5.421z"/>
  <path id="svg_66" fill="#91B31E" d="m272.806,132.084c0.503,4.804 1.99,9.454 4.367,13.659c2.378,4.205 5.595,7.876 9.452,10.785c13.259,10.18 25.73,6.044 25.73,6.044c0,0 0.865,-13.119 -12.394,-23.337c-3.795,-2.989 -8.163,-5.166 -12.835,-6.397c-4.671,-1.23 -9.545,-1.487 -14.32,-0.754l0,0z"/>
  <path id="svg_67" fill="white" d="m278.578,136.114l-0.435,0.565l34.006,26.207l0.435,-0.564l-34.006,-26.208z"/>
  <path id="svg_68" fill="white" d="m290.56,145.455l-8.038,0.25l0.022,0.712l8.038,-0.25l-0.022,-0.712z"/>
  <path id="svg_69" fill="white" d="m286.661,135.966l-0.694,0.159l1.802,7.838l0.694,-0.16l-1.802,-7.837z"/>
  <path id="svg_70" fill="white" d="m299.305,152.193l-8.038,0.251l0.022,0.712l8.038,-0.251l-0.022,-0.712z"/>
  <path id="svg_71" fill="white" d="m295.405,142.729l-0.695,0.16l1.801,7.837l0.695,-0.159l-1.801,-7.838z"/>
  <path id="svg_72" fill="white" d="m308.06,158.94l-8.038,0.25l0.022,0.712l8.038,-0.25l-0.022,-0.712z"/>
  <path id="svg_73" fill="white" d="m304.162,149.466l-0.695,0.16l1.801,7.838l0.695,-0.16l-1.801,-7.838z"/>
  <path id="svg_74" fill="#BCE13E" d="m334.164,131.778c-3.827,0.398 -7.531,1.581 -10.881,3.475c-3.35,1.894 -6.273,4.458 -8.587,7.532c-8.131,10.562 -4.81,20.5 -4.81,20.5c0,0 10.459,0.687 18.591,-9.875c2.384,-3.021 4.119,-6.501 5.098,-10.223c0.978,-3.722 1.179,-7.606 0.589,-11.409l0,0z"/>
  <path id="svg_75" fill="#91B31E" d="m247.344,156.464l7.495,-12.024c-2.847,-11.723 -7.278,-23.004 -13.17,-33.53c-4.899,-8.653 -10.981,-16.5803 -18.07,-23.5534l-10.116,7.1003c0,0 1.273,-2.8757 2.749,-5.7388l2.787,-5.6752c-7.095,-6.3067 -14.831,-11.8511 -23.083,-16.5421c-3.652,-2.0105 -6.846,-3.6902 -9.824,-5.0009c-2.458,-1.133 -5.013,-2.0443 -7.634,-2.723c-2.364,3.5262 -4.187,7.3864 -5.408,11.4522c-0.927,2.8202 -1.65,5.7034 -2.164,8.6274c-0.627,3.3647 -1.052,6.7641 -1.272,10.1797l6.362,2.545l6.274,2.4558l-6.363,0.2418l-6.362,0.1909c-0.045,21.2133 6.716,41.8813 19.291,58.9663c1.985,2.736 4.008,5.319 6.095,7.635l8.907,-0.56l8.907,-0.611l-11.197,8.182c7.472,7.301 15.88,13.578 25.004,18.667c3.397,1.884 6.222,3.207 8.207,4.085c1.985,0.878 3.143,1.272 3.143,1.272l10.485,-7.265l10.485,-7.266c0,0 0,-0.662 0,-1.973c0,-1.31 0,-3.181 -0.14,-5.586c-0.393,-6.541 -1.243,-13.046 -2.545,-19.469l-8.843,5.917z"/>
  <path id="svg_76" fill="white" d="m251.569,182.779c-3.958,-5.79 -13.692,-20.118 -25.615,-38.645c-11.923,-18.527 -26.111,-41.241 -38.747,-64.196c9.238,24.533 21.848,48.532 32.97,67.721c11.121,19.189 20.805,33.682 24.864,39.625l3.257,-2.253l3.271,-2.252z"/>
  <path id="svg_77" fill="#BCE13E" d="m262.13,168.591l7.826,-4.708c1.813,-7.588 2.571,-15.39 2.252,-23.185c-0.295,-6.447 -1.495,-12.82 -3.563,-18.934l-7.889,1.183l3.244,-2.545l3.258,-2.544c-2.277,-5.721 -5.174,-11.174 -8.64,-16.263c-2.232,-3.458 -4.915,-6.6032 -7.978,-9.3523c-3.347,1.7942 -8.908,6.9095 -13.667,15.0153l2.927,3.257l2.939,3.194l-3.817,-1.667l-3.754,-1.718c-5.132,10.141 -7.44,21.477 -6.68,32.818c0.28,4.33 0.949,8.627 1.997,12.839l10.575,4.542l-8.831,1.413c2.165,6.375 5.159,12.437 8.907,18.031c1.387,2.087 2.621,3.677 3.499,4.759c0.878,1.081 1.413,1.667 1.413,1.667l8.156,-1.069l8.157,-1.082c0.809,-1.409 1.539,-2.862 2.188,-4.352c1.713,-3.868 3.15,-7.852 4.301,-11.923l-6.82,0.624z"/>
  <path id="svg_78" fill="white" d="m256.798,184.929c-0.56,-4.479 -1.921,-15.575 -3.334,-29.712c-1.412,-14.137 -2.952,-31.354 -3.702,-48.227c-1.406,16.148 -1.619,32.378 -0.637,48.558c0.751,14.302 2.036,25.449 2.622,30.056l2.545,-0.331l2.506,-0.344z"/>
  <path id="svg_79" fill="#BCE13E" d="m483.833,239.392c0,0 12.037,-33.479 10.536,-65.927c-1.502,-32.448 8.029,-56.816 23.591,-54.92c15.562,1.896 29.114,60.608 -30.119,124.359l-4.008,-3.512z"/>
  <path id="svg_80" fill="white" d="m489.037,238.169l-1.209,-0.763c0.216,-0.344 21.861,-35.235 22.701,-73.715l1.425,0c-0.84,38.913 -22.701,74.122 -22.917,74.478z"/>
  <path id="svg_81" fill="#91B31E" d="m486.543,243.374c0,0 21.632,-11.261 43.748,-13.234c22.115,-1.972 37.805,-10.688 35.082,-21.072c-2.723,-10.383 -43.799,-14.15 -81.578,31.901l2.748,2.405z"/>
  <path id="svg_82" fill="white" d="m487.663,240.651l-0.916,-1.095c0.216,-0.191 22.141,-18.298 48.506,-22.472l0.217,1.413c-25.959,4.11 -47.591,21.975 -47.807,22.154z"/>
  <path id="svg_83" fill="#BCE13E" d="m584.282,237.788c-7.6,-0.907 -15.254,-1.265 -22.905,-1.069c-9.684,0.284 -19.222,2.445 -28.083,6.362c-9.913,4.416 -15.27,12.356 -18.349,19.304c-1.813,4.094 -3.055,8.419 -3.69,12.852c3.581,2.772 7.603,4.923 11.897,6.362c4.518,1.646 9.327,2.342 14.127,2.045c4.799,-0.298 9.486,-1.583 13.766,-3.776c9.348,-4.814 17.357,-11.87 23.311,-20.537c4.477,-6.583 7.831,-13.863 9.926,-21.543l0,0z"/>
  <path id="svg_84" fill="white" d="m511.318,275.478l-0.153,-0.42c0,0 3.957,-1.578 9.849,-4.123c5.891,-2.545 13.679,-6.057 21.365,-9.772c7.685,-3.716 15.269,-7.635 20.881,-10.791c2.812,-1.54 5.09,-2.876 6.731,-3.817l2.545,-1.476l0.229,0.381l-2.545,1.476c-1.603,0.955 -3.919,2.304 -6.731,3.818c-5.612,3.117 -13.195,7.075 -20.907,10.79c-7.711,3.716 -15.498,7.241 -21.39,9.786c-5.891,2.545 -9.874,4.148 -9.874,4.148z"/>
  <path id="svg_85" fill="white" d="m553.679,255.641c-0.151,-1.118 -0.116,-2.253 0.101,-3.36c0.557,-3.074 1.665,-6.023 3.271,-8.703l0.369,0.216c-1.559,2.641 -2.64,5.535 -3.194,8.551c-0.126,0.783 -0.185,1.574 -0.178,2.367c0.003,0.281 0.024,0.561 0.063,0.84l-0.432,0.089z"/>
  <path id="svg_86" fill="white" d="m542.659,261.316l0.331,-0.306c0.239,0.238 0.494,0.459 0.763,0.662c0.75,0.569 1.551,1.067 2.392,1.489c3.363,1.605 7.017,2.51 10.74,2.659l0,0.446c-3.78,-0.144 -7.491,-1.057 -10.905,-2.685c-1.227,-0.562 -2.35,-1.328 -3.321,-2.265z"/>
  <path id="svg_87" fill="white" d="m522.096,270.758l0.331,-0.293c0.266,0.286 0.551,0.553 0.852,0.802c0.837,0.682 1.731,1.291 2.673,1.819c3.774,1.992 7.911,3.203 12.164,3.563l0,0.433c-4.31,-0.35 -8.505,-1.571 -12.33,-3.589c-1.381,-0.688 -2.63,-1.614 -3.69,-2.735l0,0z"/>
  <path id="svg_88" fill="white" d="m530.914,266.686c-0.135,-1.669 -0.002,-3.349 0.395,-4.975c1.075,-4.531 2.935,-8.837 5.497,-12.725l0.369,0.242c-2.533,3.842 -4.364,8.103 -5.408,12.584c-0.258,1.159 -0.407,2.339 -0.446,3.525c-0.027,0.424 -0.027,0.849 0,1.273l-0.407,0.076z"/>
  <path id="svg_89" fill="white" d="m561.415,251.696l0.306,-0.318c0.572,0.492 1.221,0.887 1.921,1.171c2.018,0.835 4.179,1.267 6.362,1.272l0,0.458c-2.254,0.006 -4.488,-0.426 -6.578,-1.272c-0.74,-0.319 -1.42,-0.763 -2.011,-1.311l0,0z"/>
  <path id="svg_90" fill="#91B31E" d="m565.691,320.18c-2.38,-10.383 -7.139,-26.213 -21.734,-38.034c-14.595,-11.821 -32.715,-3.576 -32.715,-3.576c0,0 -3.258,19.584 12.114,30.667c15.371,11.083 31.811,11.478 42.335,10.943z"/>
  <path id="svg_91" fill="white" d="m511.127,278.711l0.229,-0.293l45.287,34.624l-0.216,0.293l-45.3,-34.624z"/>
  <path id="svg_92" fill="white" d="m542.226,302.2c0.786,-0.499 1.644,-0.873 2.545,-1.107c2.536,-0.662 5.176,-0.831 7.775,-0.496l0,0.369c-2.553,-0.323 -5.145,-0.154 -7.635,0.496c-0.635,0.17 -1.253,0.4 -1.845,0.687c-0.213,0.102 -0.417,0.222 -0.611,0.357l-0.229,-0.306z"/>
  <path id="svg_93" fill="white" d="m533.968,296.003l0.344,0.14c-0.088,0.267 -0.156,0.539 -0.204,0.815c-0.14,0.772 -0.212,1.556 -0.216,2.341c0.052,3.082 0.687,6.125 1.87,8.971l-0.343,0.14c-1.209,-2.888 -1.857,-5.98 -1.909,-9.111c-0.034,-1.116 0.121,-2.231 0.458,-3.296l0,0z"/>
  <path id="svg_94" fill="white" d="m518.978,284.551l0.357,0.127c-0.107,0.307 -0.188,0.622 -0.242,0.942c-0.17,0.885 -0.255,1.784 -0.255,2.685c0.043,3.527 0.764,7.014 2.125,10.268l-0.343,0.14c-1.384,-3.298 -2.123,-6.832 -2.176,-10.408c-0.029,-1.273 0.152,-2.541 0.534,-3.754z"/>
  <path id="svg_95" fill="white" d="m525.48,289.386c1.17,-0.763 2.461,-1.322 3.818,-1.654c3.792,-0.975 7.734,-1.221 11.618,-0.725l0,0.369c-3.83,-0.482 -7.717,-0.232 -11.453,0.738c-0.954,0.262 -1.883,0.612 -2.774,1.043c-0.323,0.149 -0.633,0.324 -0.929,0.522l-0.28,-0.293z"/>
  <path id="svg_96" fill="white" d="m547.927,306.667l0.344,0.14c-0.181,0.606 -0.263,1.238 -0.242,1.87c0.038,1.814 0.413,3.605 1.107,5.281l-0.344,0.14c-0.714,-1.729 -1.102,-3.575 -1.145,-5.446c-0.018,-0.673 0.077,-1.344 0.28,-1.985l0,0z"/>
  <path id="svg_97" fill="#FFD200" d="m142.047,423.365c0,0 -0.509,-0.725 -3.448,0.586c-2.94,1.31 -9.722,10.268 -11.733,15.053c2.112,1.919 4.385,3.652 6.795,5.179c1.239,-1.044 2.549,-2 3.92,-2.863c0.061,4.651 -0.267,9.299 -0.98,13.895c-0.567,2.818 -1.28,5.604 -2.138,8.348c6.644,2.656 13.916,3.323 20.932,1.921c0,0 0.153,-12.432 0.535,-17.216c0.381,-4.785 2.621,-10.18 1.387,-14.583c-1.235,-4.403 -6.515,-6.159 -10.778,-10.536l-4.492,0.216z"/>
  <path id="svg_98" fill="#FF9A5C" d="m150.509,412.04c-0.186,-2.247 -0.978,-4.402 -2.291,-6.235c-2.074,-2.545 -6.655,-1.667 -8.525,2.29c-0.937,1.817 -1.446,3.823 -1.489,5.866c-0.251,-0.212 -0.569,-0.329 -0.897,-0.329c-0.329,0 -0.647,0.117 -0.897,0.329c-1.4,0.942 0.712,4.301 2.837,3.716c0.456,0.828 1.065,1.562 1.794,2.163c0,2.698 0.56,3.423 0.56,3.423c1.973,2.393 4.288,4.759 5.854,3.716c1.565,-1.044 -0.319,-2.545 -0.828,-3.334c-0.079,-0.09 -0.139,-0.196 -0.176,-0.311c-0.036,-0.115 -0.048,-0.236 -0.035,-0.356c0.013,-0.12 0.051,-0.236 0.112,-0.34c0.06,-0.104 0.142,-0.195 0.239,-0.265c4.67,-0.56 3.742,-10.333 3.742,-10.333z"/>
  <path id="svg_99" fill="#753519" d="m147.2,407.816c0,0 -1.272,4.555 -3.932,5.56c0.392,-0.373 0.727,-0.801 0.993,-1.272c0,0 -3.474,3.245 -5.408,2.939c0,0 -1.272,-0.547 -1.616,-4.861c-0.344,-4.313 4.161,-6.884 4.161,-6.884l5.166,0l3.627,4.161l0.381,2.94c-0.751,-0.06 -1.469,-0.335 -2.067,-0.794c-0.599,-0.458 -1.052,-1.079 -1.305,-1.789l0,0z"/>
  <path id="svg_100" fill="#FF9A5C" d="m150.942,459.389c0,0 -16.034,-2.762 -21.836,-5.981c-5.803,-3.219 -5.09,-6.07 -4.288,-8.131c0.801,-2.061 3.308,-6.426 3.308,-6.426l5.637,4.059l-0.14,1.273l-0.98,2.214c0,0 1.858,1.17 4.658,2.723c2.799,1.552 14.277,6.769 14.277,6.769c0,0 2.71,2.291 -0.636,3.5z"/>
  <path id="svg_101" fill="#108F6E" d="m178.669,488.694l-3.245,-17.636c-0.125,-0.667 -0.409,-1.294 -0.828,-1.828c-0.419,-0.533 -0.96,-0.959 -1.577,-1.239l-19.342,-8.729l1.056,-2.329l19.342,8.729c0.984,0.458 1.845,1.146 2.509,2.005c0.664,0.859 1.113,1.864 1.308,2.932l3.245,17.624l-2.468,0.471z"/>
  <path id="svg_102" fill="#753519" d="m187.805,478.221c0,0 3.932,-2.685 5.904,-2.965c1.973,-0.279 2.545,1.846 3.932,1.489c0.956,-0.297 1.828,-0.816 2.545,-1.514l2.8,1.502c0,0 0.292,-0.789 2.252,0c1.96,0.788 0.84,-0.064 1.972,0.776c0.84,0.525 1.824,0.774 2.812,0.712c0.919,-0.236 1.882,-0.236 2.8,0c1.412,0.407 3.512,-0.687 6.744,0c3.232,0.687 6.184,-0.687 7.877,0c1.692,0.687 2.544,3.143 3.931,2.482c1.288,-0.72 2.51,-1.55 3.652,-2.482l2.253,3.932c0,0 0.84,-1.807 1.959,0c0.951,1.272 2.207,2.283 3.652,2.94c0.578,0.475 1.058,1.058 1.413,1.717c0.713,1.65 1.222,3.381 1.514,5.154l0,1.692l-42.259,-1.692l-17.713,-9.811l1.96,-3.932z"/>
  <path id="svg_103" fill="#108F6E" d="m184.777,482.573l-3.245,-17.624c-0.121,-0.67 -0.402,-1.301 -0.821,-1.837c-0.42,-0.537 -0.963,-0.963 -1.584,-1.242l-19.342,-8.729l1.056,-2.329l19.342,8.729c0.986,0.456 1.848,1.142 2.513,2.002c0.664,0.859 1.112,1.866 1.304,2.935l3.245,17.637l-2.468,0.458z"/>
  <path id="svg_104" fill="#108F6E" d="m181.443,478.221c0,0 -3.576,11.109 -4.518,12.992c-0.941,1.883 2.253,8.653 2.253,8.653l33.695,16.542l32.931,-22.777l-64.361,-15.41z"/>
  <path id="svg_105" fill="#108F6E" d="m175.144,532.187c-0.897,0.034 -1.783,-0.201 -2.545,-0.674c-1.705,-1.12 -2.303,-3.487 -1.96,-7.635c0.687,-8.233 6.363,-31.074 6.655,-32.041l1.387,0.343c0,0.242 -5.942,23.707 -6.617,31.812c-0.292,3.563 0.128,5.586 1.273,6.363c1.794,1.17 5.98,0 12.801,-3.716c12.788,-6.91 22.344,-13.208 22.434,-13.272l0.788,1.196c-0.101,0.064 -9.696,6.363 -22.548,13.336c-5.395,2.888 -9.123,4.288 -11.668,4.288z"/>
  <path id="svg_106" fill="#753519" d="m245.829,501.037c0,0 -2.01,2.252 -2.125,3.652c-0.114,1.399 2.125,0 2.125,0c0,0 1.133,1.527 2.253,0.623c1.12,-0.903 0,-1.998 0,-1.998l0.496,-2.277l-2.749,0z"/>
  <path id="svg_107" fill="#108F6E" d="m342.626,533.065l-1.921,1.476l-1.68,-2.265c-1.056,-1.451 -2.545,-3.537 -4.262,-6.082c-3.449,-5.09 -7.826,-11.974 -11.809,-19.087c-3.983,-7.114 -7.635,-14.507 -10.04,-20.131c-1.158,-2.85 -2.125,-5.217 -2.812,-6.871l-0.942,-2.66l2.265,-0.827l0.942,2.621l2.761,6.783c2.431,5.548 5.955,12.852 9.926,19.914c3.97,7.062 8.296,13.921 11.706,18.947c1.693,2.545 3.181,4.568 4.212,6.006l1.654,2.176z"/>
  <path id="svg_108" fill="#FCE300" d="m314.53,465.331c0.625,2.152 0.509,4.451 -0.33,6.528c-0.362,0.965 -0.926,1.841 -1.655,2.57c-0.729,0.729 -1.605,1.293 -2.57,1.654c-0.997,0.339 -2.059,0.442 -3.103,0.303c-1.044,-0.139 -2.042,-0.517 -2.916,-1.104c-2.025,-1.372 -3.489,-3.427 -4.123,-5.79c-0.184,-0.625 -0.32,-1.263 -0.407,-1.909c-0.051,-0.626 -0.051,-1.256 0,-1.883c0.102,-1.162 0.404,-2.299 0.891,-3.359c0.417,-0.961 1.057,-1.808 1.867,-2.472c0.81,-0.664 1.766,-1.125 2.79,-1.346c1.025,-0.177 2.074,-0.143 3.085,0.1c1.011,0.243 1.962,0.69 2.794,1.313c0.869,0.629 1.622,1.404 2.227,2.29c0.303,0.461 0.567,0.946 0.789,1.451c0.277,0.527 0.499,1.081 0.661,1.654l0,0z"/>
  <path id="svg_109" fill="#108F6E" d="m311.005,468.983c-0.404,-0.733 -0.863,-1.435 -1.374,-2.099c-0.468,-0.639 -0.983,-1.243 -1.539,-1.807c-0.549,-0.583 -1.184,-1.076 -1.884,-1.464c-0.451,0.689 -0.791,1.445 -1.005,2.24c-0.192,0.767 -0.307,1.551 -0.344,2.341c-0.066,0.868 -0.066,1.74 0,2.609c-1.9,-0.693 -3.925,-0.975 -5.942,-0.827c-0.863,0.054 -1.717,0.208 -2.545,0.458c2.787,5.37 6.591,7.405 9.518,8.156c1.658,0.454 3.396,0.537 5.09,0.242c1.481,-0.9 2.777,-2.075 3.817,-3.461c2.376,-3.188 3.539,-7.116 3.283,-11.083c-0.839,0.225 -1.654,0.537 -2.43,0.929c-1.817,0.882 -3.406,2.17 -4.645,3.766l0,0z"/>
  <path id="svg_110" fill="#753519" d="m252.014,505.605c0,0 -1.68,3.296 -1.4,4.148c0.28,0.853 1.4,0 1.4,0c0,0 1.692,0.738 2.545,0.369c0.865,-0.612 1.625,-1.359 2.252,-2.214l-3.105,0l-1.692,-2.303z"/>
  <path id="svg_111" fill="#753519" d="m260.73,527.847c0,0 -7.062,-0.75 -7.049,0c0.013,0.751 0,2.914 0,2.914c-0.182,-0.239 -0.416,-0.434 -0.686,-0.568c-0.269,-0.134 -0.566,-0.204 -0.867,-0.204c-0.3,0 -0.597,0.07 -0.867,0.204c-0.269,0.134 -0.504,0.329 -0.685,0.568c-1.072,1.321 -1.763,2.91 -1.998,4.594c-0.176,0.527 -0.499,0.992 -0.933,1.34c-0.433,0.347 -0.957,0.563 -1.51,0.62c-0.553,0.061 -1.077,0.279 -1.51,0.629c-0.433,0.349 -0.757,0.815 -0.933,1.343c2.249,0.734 4.55,1.296 6.884,1.68c1.599,0.166 3.211,0.166 4.81,0c1.78,-0.171 3.574,-0.129 5.344,0.127c2.545,0.433 5.332,1.005 7.864,1.272c2.532,0.268 7.024,-1.972 7.024,-1.972c3.654,-0.158 7.315,-0.065 10.956,0.28c2.191,0.26 4.413,-0.028 6.464,-0.84l1.12,-2.545c-1.437,-0.376 -2.716,-1.2 -3.652,-2.354c-1.4,-1.858 -3.092,-6.744 -4.212,-7.113c-1.498,-0.828 -2.909,-1.804 -4.212,-2.914c0,0 -2.812,-4.339 -3.092,-7.075c-0.28,-2.736 -3.932,-4.504 -3.932,-4.504c-0.635,0.25 -1.212,0.627 -1.695,1.108c-0.484,0.482 -0.864,1.057 -1.117,1.691c-0.256,0.636 -0.732,1.159 -1.342,1.472c-0.61,0.313 -1.313,0.396 -1.979,0.233c0,0 -1.451,0.242 -2.303,2.685c-0.497,1.429 -0.872,2.898 -1.12,4.39c0,0 -3.372,-1.132 -5.09,0c-1.718,1.133 0.318,2.939 0.318,2.939z"/>
  <path id="svg_112" fill="#108F6E" d="m213.895,514.452l-2.413,1.541l6.312,9.889l2.414,-1.54l-6.313,-9.89z"/>
  <path id="svg_113" fill="#91B31E" d="m492.486,485.292l-18.853,48.986l2.814,1.084l18.854,-48.987l-2.815,-1.083z"/>
  <path id="svg_114" fill="#91B31E" d="m495.3,485.363l-2.814,1.083l18.853,48.987l2.814,-1.084l-18.853,-48.986z"/>
  <path id="svg_115" fill="#91B31E" d="m502.334,504.79l-16.287,0l0,3.016l16.287,0l0,-3.016z"/>
  <path id="svg_116" fill="#91B31E" d="m505.923,515.555l-23.617,0l0,3.016l23.617,0l0,-3.016z"/>
  <path id="svg_117" fill="#FF9A5C" d="m475.18,330.704c-2.313,2.303 -4.128,5.058 -5.332,8.093c-0.36,0.882 -0.527,1.832 -0.49,2.785c0.038,0.953 0.28,1.887 0.709,2.738c0.43,0.852 1.037,1.601 1.78,2.198c0.744,0.597 1.607,1.027 2.531,1.262c0.42,1.987 0.688,4.004 0.802,6.032c1.475,0.408 3,0.605 4.53,0.585c1.018,-0.134 2.015,-0.399 2.965,-0.789l0,-6.362c1.59,-1.434 2.886,-3.162 3.817,-5.09c0.891,-2.469 1.68,-8.487 -1.183,-11.452c-2.863,-2.965 -8.564,-1.782 -10.129,0z"/>
  <path id="svg_118" fill="#91B31E" d="m432.31,311.527c0,0 -0.102,0.446 -2.379,1.146c-2.278,0.699 -3.907,0 -4.556,1.896c-0.649,1.896 0.649,5.42 -0.763,6.184c-0.683,0.311 -1.303,0.742 -1.833,1.272c0,0 3.576,4.556 4.759,6.503c1.072,-0.944 1.83,-2.191 2.176,-3.576c0.535,-2.278 4.238,-1.183 5.09,-1.96c0.635,-0.602 1.222,-1.253 1.756,-1.947c0,0 -1.221,-7.902 -4.25,-9.518z"/>
  <path id="svg_119" fill="#753519" d="m480.562,334.789c0,0 -3.97,-2.774 -4.886,-5.357c-0.916,-2.583 0.178,-4.976 2.443,-4.708c1.17,0.116 2.328,0.333 3.461,0.648c0,0 2.112,-2.684 5.764,0.739c1.084,1.066 1.929,2.35 2.48,3.767c0.551,1.417 0.794,2.934 0.714,4.453c0,0 4.619,1.272 2.774,5.624c-1.16,2.624 -3.303,4.689 -5.968,5.752c0,0 -0.598,2.812 -2.163,2.964c-0.867,0.065 -1.722,0.24 -2.545,0.522l0.293,-5.268c0.509,-0.049 0.995,-0.24 1.402,-0.55c0.407,-0.31 0.719,-0.728 0.901,-1.206c0.84,-1.743 -1.756,-1.476 -1.756,-1.476c0,0 -1.476,-2.672 -0.827,-3.69c0.038,0 -2.265,-0.929 -2.087,-2.214z"/>
  <path id="svg_120" fill="#FF9A5C" d="m461.017,344.968c-4.789,-3.894 -9.187,-8.245 -13.132,-12.992c-6.044,-7.406 -9.734,-12.725 -9.734,-12.725c-0.052,-1.952 -0.484,-3.875 -1.273,-5.662c-0.465,-1.172 -1.182,-2.227 -2.099,-3.092c-0.738,-0.98 -0.726,0.801 0.203,2.545l0.929,1.743c0,0 -2.417,-3.817 -3.308,-3.741c-0.891,0.076 0.178,1.4 0.636,2.087c0.328,0.573 0.544,1.204 0.636,1.858c0,0 -1.73,-2.673 -2.328,-2.202c-0.598,0.471 0.636,2.074 1.616,3.347c0.98,1.272 1.145,3.27 1.73,4.339c0,0 8.399,21.785 20.36,31.15c11.961,9.365 5.764,-6.655 5.764,-6.655z"/>
  <path id="svg_121" fill="#FF9A5C" d="m437.884,319.57c0.086,-0.529 0.205,-1.052 0.356,-1.566c0.102,-0.152 0.433,-1.336 0.674,-2.074c0.242,-0.738 -0.101,-1.438 -0.521,-1.081c-0.674,0.663 -1.119,1.523 -1.273,2.456c0.134,0.79 0.392,1.554 0.764,2.265l0,0z"/>
  <path id="svg_122" fill="#FF9A5C" d="m493.745,366.969c0,0 5.357,6.503 7.406,7.521c2.049,1.018 7.457,-3.474 10.18,-8.64c1.608,-2.938 3.023,-5.977 4.237,-9.099c0,0 3.627,-2.634 4.645,-5.09c0,0 0.369,-1.119 0,-1.361c-0.369,-0.242 -1.438,1.565 -1.998,2.252c0,0 1.629,-2.825 1.374,-3.448c-0.254,-0.624 -2.545,2.634 -2.545,2.634c0,0 1.82,-3.321 1.196,-3.385c-0.623,-0.064 -2.392,2.952 -2.392,2.952c0,0 -0.064,-2.074 -0.687,-1.947c-0.624,0.128 -0.433,2.443 -0.433,2.443c0,0 -0.636,2.889 -1.005,3.818c-0.369,0.929 -8.284,9.976 -9.289,10.18c0,0 -3.194,-4.518 -6.146,-5.396c-2.952,-0.878 -4.543,6.566 -4.543,6.566z"/>
  <path id="svg_123" fill="#0E1A34" d="m466.336,387.113c0,0 7.419,78.651 8.716,85.255c0,0 7.037,0.853 9.429,0c0,0 -0.534,-47.883 0,-52.807c0.535,-4.925 4.772,-30.056 3.245,-33.453c-1.527,-3.398 -21.39,1.005 -21.39,1.005z"/>
  <path id="svg_124" fill="#0E1A34" d="m489.597,385.777c0,0 2.634,31.468 3.945,36.278c1.31,4.81 15.6,25.207 15.6,25.207l-6.235,6.363c0,0 -12.916,-13.081 -16.644,-17.815c-3.728,-4.734 -10.18,-24.622 -10.18,-24.622c0,0 3.665,-30.336 13.514,-25.411z"/>
  <path id="svg_125" fill="#108F6E" d="m379.452,208.19c-7.241,-2.252 -12.483,-2.952 -16.72,-5.344c-4.238,-2.393 -8.501,-4.161 -11.745,-4.034c-3.245,0.127 -9.976,-1.629 -13.998,0c-4.021,1.629 -8.22,9.862 -14.353,11.363c-6.133,1.502 -21.505,-1.73 -25.793,-4.479c-4.288,-2.749 -5.51,-8.246 -4.275,-10.994c1.14,-3.007 1.643,-6.218 1.476,-9.429c-0.255,-1.794 6.247,-5.319 8.487,-7.635c2.24,-2.316 4.377,-10.04 -0.942,-13.883c-25.041,5.637 -48.597,16.533 -69.108,31.965c0.241,1.524 0.801,2.981 1.642,4.275c1.501,2.545 -0.904,3.996 -0.827,4.747c0.076,0.75 1.425,0.661 0.254,2.087c-1.17,1.425 0,1.157 -1.069,2.163c-0.898,0.904 -1.85,1.754 -2.85,2.545c-0.751,0.496 -0.496,1.997 -1.998,3.741c-1.501,1.743 -4.237,3.245 -4.237,5.993c0,2.749 -4.25,6.49 -4.746,7.991c-0.497,1.502 -4.747,7.241 -4.988,10.982c-0.258,3.324 -0.258,6.664 0,9.989c0.332,2.492 0.267,5.022 -0.191,7.494c-0.727,3.349 -1.152,6.756 -1.273,10.18c-0.254,4.988 1.744,7.241 6.49,8.742c4.746,1.502 13.717,5.739 15.969,8.984c2.253,3.244 3.5,7.24 5.256,7.736c1.756,0.497 3.244,5.752 8.983,9.735c5.739,3.983 16.479,4.504 21.225,9.62c4.746,5.115 13.476,17.585 15.728,24.456c2.252,6.872 5.993,9.404 9.976,12.725c3.983,3.321 8.996,7.088 12.725,7.342c3.728,0.255 5.268,-1.272 5.09,-2.659c-0.179,-1.387 -4.874,-5.332 -5.625,-6.362c-0.75,-1.031 -2.252,-7.75 -4.492,-12.483c-2.239,-4.734 -2.544,-4.938 -1.756,-7.215c0.789,-2.278 2.253,-7.266 4.492,-8.513c2.24,-1.247 3.996,-0.344 5.497,-2.545c1.502,-2.201 2.024,-3.448 1.884,-4.823c-0.14,-1.374 -2.38,-2.227 -4.632,-2.43c-2.252,-0.204 -2.99,-2.189 -5.994,-2.685c-3.003,-0.496 -7.24,-1.756 -8.232,-3.499c-0.513,-0.757 -1.235,-1.349 -2.077,-1.703c-0.843,-0.355 -1.77,-0.457 -2.67,-0.295c-1.501,0.254 -5.993,0.992 -8.983,-1.998c-2.991,-2.99 -3.245,-8.742 -3.741,-11.732c-0.497,-2.99 -1.006,-3.996 -0.255,-6.248c0.751,-2.252 0.751,-4.008 4.25,-5.624c3.499,-1.616 9.226,-2.876 12.725,0c3.499,2.875 10.485,0.636 11.987,-1.107c1.501,-1.744 5.738,-6.999 9.238,-7.241c3.499,-0.241 9.238,0 11.452,-1.997c2.214,-1.998 10.74,-6.21 12.241,-9.595c1.502,-3.385 7.317,-13.195 7.317,-16.389c0,-3.194 10.485,-9.442 13.475,-8.45c2.991,0.993 6.986,-3.741 8.488,-3.741c1.501,0 5.993,0.751 8.487,-2.252c2.494,-3.003 4.492,-5.001 6.49,-7.864c1.997,-2.863 3.486,-7.367 -3.754,-9.607z"/>
  <path id="svg_126" fill="#108F6E" d="m363.89,443.534c-5.003,-3.103 -10.206,-5.87 -15.576,-8.284c-7.151,-3.003 -12.419,-13.666 -14.302,-15.868c-1.883,-2.201 -3.385,-21.39 0,-24.787c3.385,-3.398 6.795,-9.022 9.607,-13.54c2.812,-4.517 3.945,-7.533 2.812,-9.416c-1.132,-1.883 -1.132,-12.572 0,-14.379c1.133,-1.807 6.783,-5.191 9.417,-4.822c2.634,0.369 10.917,-1.935 14.302,0c3.385,1.934 16.186,8.678 21.836,9.06c5.649,0.381 11.287,5.268 15.804,2.634c4.517,-2.634 11.147,0.381 14.99,6.031c3.842,5.65 8.347,11.389 14.747,15.104c6.401,3.716 5.841,7.101 9.506,7.851c3.665,0.751 11.859,2.991 16.3,6.019c4.441,3.029 2.978,6.783 -0.687,11.3c-3.665,4.517 -8.22,11.668 -11.21,16.186c-2.991,4.517 -1.896,11.299 0,13.17c1.896,1.87 0.394,9.798 -2.24,12.05c-2.634,2.252 -8.284,6.019 -10.536,10.18c-2.252,4.161 -2.036,7.215 -7.228,9.06c-5.191,1.845 -16.86,7.126 -24.011,8.818c-7.152,1.692 -13.183,2.1 -18.069,6.222c-4.887,4.123 -5.586,15.346 -10.18,17.268c-4.594,1.921 -18.425,10.561 -23.693,10.001c-5.269,-0.559 -5.256,-1.603 -2.253,-5.408c3.003,-3.804 10.613,-10.497 14.901,-16.605c4.288,-6.108 -1.349,-12 2.405,-14.468c3.754,-2.469 4.428,-9.811 5.599,-11.974c1.17,-2.163 0.852,-14.226 -12.241,-21.403z"/>
  <path id="svg_127" fill="#108F6E" d="m472.037,275.249c0.751,1.527 4.772,3.283 7.775,4.785c3.003,1.501 5.84,-0.802 7.062,-4.785c1.221,-3.983 6.489,-4.746 9.251,-3.245c2.761,1.502 5.777,2.265 7.787,1.756c2.011,-0.509 5.815,-1.972 5.917,-2.01c-11.43,-27.616 -29.473,-51.999 -52.54,-71.004c-1.574,2.182 -3.36,4.202 -5.332,6.032c-2.158,1.928 -3.843,4.327 -4.924,7.011c-0.84,1.756 -3.36,9.289 -2.354,12.546c1.005,3.258 0.585,5.523 4.313,8.284c3.729,2.762 7.037,3.69 5.37,8.755c-1.667,5.064 -0.394,10.447 -2.15,13.145c-1.046,1.856 -1.404,4.023 -1.01,6.117c0.393,2.095 1.512,3.984 3.16,5.335c4.123,3.512 9.391,2.761 10.651,3.003c1.26,0.242 6.273,2.736 7.024,4.275z"/>
  <path id="svg_128" fill="#108F6E" d="m348.315,317.47c-0.084,2.161 -0.995,4.206 -2.545,5.714c-2.545,2.252 -5.027,6.273 -2.545,6.769c2.481,0.497 7.774,1.273 9.034,1.998c1.26,0.725 7.775,4.276 9.531,3.029c1.756,-1.247 3.016,-4.276 4.772,-4.518c1.756,-0.242 2.252,-4.708 3.817,-6.12c1.565,-1.413 6.77,-6.439 7.266,-10.447c0.496,-4.009 1.005,-10.04 0,-11.542c-1.005,-1.501 -8.029,-2.545 -8.78,-4.517c-0.751,-1.972 -5.23,-3.512 -8.64,-1.514c-3.41,1.998 -4.912,6.528 -5.408,9.798c-0.496,3.27 -6.757,5.662 -6.502,11.35z"/>
  <path id="svg_129" fill="#108F6E" d="m456.22,210.951l-2.074,-1.552c0,0 0.623,-0.814 1.629,-2.405c1.005,-1.591 2.417,-3.817 3.957,-6.706c3.735,-6.989 6.946,-14.245 9.607,-21.708c2.688,-7.489 4.902,-15.138 6.63,-22.905c0.789,-3.143 1.183,-5.828 1.565,-7.635l0.56,-2.914l2.545,0.433l-0.56,2.965c-0.382,1.871 -0.789,4.581 -1.591,7.775c-1.752,7.847 -3.992,15.577 -6.706,23.146c-2.692,7.589 -5.941,14.968 -9.721,22.077c-1.578,2.902 -3.004,5.256 -4.06,6.884c-1.056,1.629 -1.781,2.545 -1.781,2.545z"/>
  <path id="svg_130" fill="#FCE300" d="m489.05,135.646c-0.777,5.574 -5.09,9.455 -9.506,8.678c-4.415,-0.776 -7.444,-5.535 -6.731,-10.637c0.509,-5.09 4.581,-9.048 9.085,-8.73c4.505,0.318 7.712,5.103 7.152,10.689z"/>
  <path id="svg_131" fill="#108F6E" d="m483.96,137.899c-0.057,-0.925 -0.189,-1.845 -0.395,-2.749c-0.37,-1.689 -1.133,-3.267 -2.226,-4.606c-1.319,1.068 -2.373,2.427 -3.08,3.97c-0.43,0.797 -0.809,1.622 -1.132,2.469c-2.24,-2.121 -5.106,-3.46 -8.17,-3.818c0.294,4.319 2.229,8.362 5.408,11.3c1.332,1.264 2.896,2.258 4.607,2.926c1.859,-0.017 3.694,-0.429 5.382,-1.208c2.978,-1.273 6.363,-4.187 8.551,-10.18c-3.106,-0.307 -6.231,0.356 -8.945,1.896l0,0z"/>
  <path id="svg_132" fill="#108F6E" d="m422.105,84.0479c-2.243,0.6779 -4.384,1.6583 -6.362,2.914c-4.225,2.4431 -13.73,11.8594 -13.73,11.8594c0,0 3.474,6.3627 7.902,9.6967c2.219,-0.986 4.385,-2.086 6.489,-3.296c0,0 2.634,12.725 -2.634,20.512c2.116,2.288 4.931,3.809 8.004,4.326c4.988,0.751 10.256,0.662 14.583,3.818c4.326,3.156 11.388,2.825 14.404,0c0,0 2.545,-9.785 0,-18.909c-1.293,-5.043 -3.394,-9.843 -6.222,-14.214l1.603,1.273c0,0 5.408,-5.9679 5.739,-10.6379c0,0 -6.299,-6.5023 -10.816,-8.9073c-4.517,-2.405 -9.544,-1.6924 -13.247,-0.0382c-1.791,0.876 -3.727,1.4193 -5.713,1.6033l0,0z"/>
  <path id="svg_133" fill="#FF9A5C" d="m412.294,72.4173c0,0.4199 1.107,5.5862 3.627,8.1057c2.519,2.5195 4.479,0.9798 5.179,1.2724c0.699,0.2927 1.107,2.2396 1.107,3.6266c0,1.387 2.239,2.7994 4.339,1.2724c2.099,-1.5269 0.979,-8.6655 0.979,-8.6655c0.722,-1.7766 0.825,-3.7439 0.293,-5.5861c0,0 1.069,-2.6595 0.318,-4.1992c-0.75,-1.5397 -1.87,-1.1198 -2.43,0c0,0 -2.66,-4.8863 -6.566,-4.0464c-3.907,0.8398 -7.406,2.9012 -6.846,8.2201z"/>
  <path id="svg_134" fill="#753519" d="m430.465,69.478c-1.272,-1.6796 -0.42,-6.006 -2.061,-8.5255c-1.642,-2.5195 -5.09,-1.6797 -5.09,-1.6797c0,0 -0.84,-3.8174 -4.046,-3.2066c-3.207,0.6108 -6.159,4.8863 -6.159,4.8863c-1.561,-0.3655 -3.185,-0.3655 -4.746,0c-3.08,0.5599 -6.566,2.6594 -5.307,5.7261c1.26,3.0666 6.006,2.914 6.006,2.914c0,0 -1.272,6.0442 3.156,4.3645c0.127,0 0.242,-0.1272 0.356,-0.1781c-0.122,-0.4481 -0.22,-0.9026 -0.292,-1.3616c-0.277,-1.4447 -0.06,-2.9407 0.616,-4.2471c0.676,-1.3064 1.772,-2.3472 3.112,-2.955l0,0c0.992,-0.4763 2.039,-0.8269 3.118,-1.0435c3.906,-0.8398 6.566,4.0465 6.566,4.0465c0.559,-1.1198 1.679,-1.5397 2.43,0c0.751,1.5397 -0.318,4.1991 -0.318,4.1991c0.377,1.3916 0.416,2.853 0.114,4.2628c0.157,0.0107 0.314,0.0107 0.471,0c4.11,0.0636 3.321,-5.5225 2.074,-7.2022z"/>
  <path id="svg_135" fill="#753519" d="m412.587,73.7788c0,0 4.823,-2.036 5.166,-9.2382c0,0 1.476,4.4919 7.953,3.6775c0,0 -0.509,-5.9934 -5.84,-7.4949c-5.332,-1.5015 -9.239,7.3804 -9.239,7.3804c-0.178,1.0344 -0.092,2.0973 0.251,3.0896c0.342,0.9922 0.93,1.8817 1.709,2.5856l0,0z"/>
  <path id="svg_136" fill="white" d="m421.481,182.753c-1.018,-8.474 -2.685,-16.923 -2.697,-17l0.7,-0.14c0,0.077 1.692,8.564 2.697,17.051l-0.7,0.089z"/>
  <path id="svg_137" fill="#FF9A5C" d="m160.319,450.634c0.775,0.011 1.548,0.067 2.316,0.165c0.84,0.153 1.375,1.273 1.604,1.794c0.229,0.522 -0.802,0.42 -1.273,-0.229c-0.471,-0.649 -0.636,-0.827 -0.636,-0.827c-0.419,-0.095 -0.854,-0.095 -1.273,0c-0.445,0.166 -0.979,-0.369 -1.081,-0.738c-0.102,-0.369 0.343,-0.165 0.343,-0.165z"/>
  <path id="svg_138" fill="#FF9A5C" d="m150.509,459.248c0.863,0.905 1.885,1.642 3.015,2.176c0.128,1.082 0.751,1.54 1.107,1.502c0.357,-0.038 0.357,-1.667 0.357,-1.667c0.305,0.738 1.539,1.489 1.705,1.031c0.089,-0.398 0.089,-0.811 0,-1.209c0,0 0.496,0.674 0.878,0.674c0.381,0 0.827,-0.331 0.661,-1.17c-0.211,-0.983 -0.608,-1.916 -1.17,-2.749c-0.497,-0.662 -0.789,-1.336 -1.871,-1.578c-0.896,-0.142 -1.802,-0.214 -2.71,-0.216c-1.038,-0.063 -2.079,-0.063 -3.118,0l1.146,3.206z"/>
  <path id="svg_139" fill="#FF9A5C" d="m150.941,456.666l0,-0.675c1.182,-0.394 2.409,-0.633 3.652,-0.712c0.598,0.216 1.171,1.069 1.502,1.387c0.331,0.318 -5.154,0 -5.154,0z"/>
  <path id="svg_140" fill="#0E1A34" d="m224.376,549.251c7.231,0 13.093,-5.862 13.093,-13.094c0,-7.231 -5.862,-13.094 -13.093,-13.094c-7.232,0 -13.094,5.863 -13.094,13.094c0,7.232 5.862,13.094 13.094,13.094z"/>
  <path id="svg_141" fill="white" d="m224.376,542.01c-1.158,0 -2.29,-0.343 -3.252,-0.986c-0.963,-0.643 -1.713,-1.557 -2.156,-2.627c-0.443,-1.07 -0.559,-2.246 -0.333,-3.382c0.226,-1.135 0.783,-2.178 1.602,-2.997c0.818,-0.818 1.861,-1.376 2.997,-1.602c1.135,-0.226 2.312,-0.11 3.382,0.333c1.069,0.443 1.983,1.194 2.626,2.156c0.644,0.963 0.987,2.094 0.987,3.252c-0.003,1.551 -0.621,3.038 -1.718,4.135c-1.097,1.097 -2.584,1.715 -4.135,1.718zm0,-10.994c-1.007,0 -1.991,0.299 -2.828,0.858c-0.837,0.559 -1.49,1.354 -1.875,2.284c-0.385,0.93 -0.486,1.954 -0.289,2.941c0.196,0.988 0.681,1.894 1.392,2.606c0.712,0.712 1.619,1.197 2.607,1.393c0.987,0.197 2.01,0.096 2.94,-0.289c0.93,-0.386 1.725,-1.038 2.285,-1.875c0.559,-0.837 0.857,-1.821 0.857,-2.828c0,-1.35 -0.536,-2.644 -1.49,-3.599c-0.955,-0.954 -2.25,-1.491 -3.599,-1.491z"/>
  <path id="svg_142" fill="#108F6E" d="m381.526,322.916c-1.873,1.711 -3.578,3.599 -5.09,5.637c-2.061,2.952 3.563,1.476 5.09,1.768c1.527,0.293 1.781,2.431 4.746,1.655c1.007,-0.159 1.995,-0.414 2.952,-0.764c2.673,-0.891 3.563,-0.598 6.223,-0.891c2.659,-0.292 2.137,-2.239 3.588,-3.931c1.451,-1.693 1.514,-3.182 0,-4.658c-1.514,-1.476 -2.405,2.965 -5.357,0c-2.952,-2.965 -2.876,-5.535 -5.586,-4.263c-2.711,1.273 -2.011,1.718 -3.245,2.825c-1.234,1.107 -3.321,2.622 -3.321,2.622z"/>
  <path id="svg_143" fill="#91B31E" d="m477.916,350.936c-2.975,0.01 -5.922,-0.582 -8.662,-1.741c-2.74,-1.159 -5.217,-2.861 -7.282,-5.003c-3.045,2.571 -5.627,5.644 -7.635,9.085c0,0 5.332,6.223 11.363,9.086c0,0 -2.736,22.904 -1.272,30.895c0,0 9.569,1.782 15.498,2.176c4.454,0.093 8.9,-0.407 13.221,-1.488l-1.667,-28.326l1.667,1.973c0,0 6.121,-5.625 6.223,-8.691c0,0 -8.729,-8.195 -12.509,-9.48c-3.779,-1.285 -5.268,1.819 -8.945,1.514z"/>
  <path id="svg_144" fill="white" d="m484.609,432.438l-0.713,0c0,-0.636 0.255,-15.804 0.713,-17.891c0.458,-2.087 3.067,-16.364 3.092,-16.542l0.713,0.127c0,0.14 -2.673,14.455 -3.105,16.542c-0.433,2.087 -0.7,17.611 -0.7,17.764z"/>
  <path id="svg_145" fill="#FFD200" d="m371.384,544.733l-14.62,0c0,0 -7.991,-53.558 0,-64.896c7.991,-11.338 24.787,-7.431 14.62,64.896z"/>
  <path id="svg_146" fill="#FFD200" d="m352.03,544.733l-13.043,0c0,0 -17.114,-5.344 -25.309,-18.387c-8.195,-13.043 3.97,-18.565 12.852,-12.992c8.882,5.574 25.5,31.379 25.5,31.379z"/>
  <path id="svg_147" fill="#91B31E" d="m356.764,544.733l-7.953,0c0,0 -18.973,-18.743 -21.353,-41.381c-2.379,-22.637 15.715,-15.269 23.719,4.594c4.784,11.751 7.787,24.15 8.908,36.787l-3.321,0z"/>
  <path id="svg_148" fill="#FFD200" d="m376.118,544.733l13.043,0c0,0 17.114,-5.344 25.309,-18.387c8.195,-13.043 -3.957,-18.565 -12.852,-12.992c-8.894,5.574 -25.5,31.379 -25.5,31.379z"/>
  <path id="svg_149" fill="#91B31E" d="m371.384,544.733l7.966,0c0,0 18.973,-18.743 21.339,-41.381c2.367,-22.637 -15.715,-15.269 -23.718,4.594c-4.785,11.751 -7.787,24.15 -8.908,36.787l3.321,0z"/>
  <path id="svg_150" fill="white" d="m416.315,307.087l0.777,-1.578l1.005,1.438l1.578,0.776l-1.438,1.005l-0.776,1.578l-1.006,-1.438l-1.59,-0.776l1.45,-1.005z"/>
  <path id="svg_151" fill="white" d="m444.068,313.627l0.471,-0.955l0.611,0.878l0.967,0.471l-0.878,0.611l-0.471,0.967l-0.611,-0.878l-0.967,-0.471l0.878,-0.623z"/>
  <path id="svg_152" fill="white" d="m448.547,300.686l0.471,-0.967l0.611,0.878l0.967,0.471l-0.878,0.611l-0.471,0.967l-0.624,-0.878l-0.954,-0.471l0.878,-0.611z"/>
  <path id="svg_153" fill="white" d="m409.622,295.838l0.471,-0.955l0.611,0.878l0.967,0.471l-0.878,0.611l-0.484,0.967l-0.61,-0.878l-0.955,-0.471l0.878,-0.623z"/>
  <path id="svg_154" fill="white" d="m415.425,331.34l0.483,-0.954l0.611,0.878l0.954,0.471l-0.878,0.61l-0.471,0.955l-0.61,-0.878l-0.967,-0.471l0.878,-0.611z"/>
  <path id="svg_155" fill="white" d="m316.999,114.104l-0.293,-0.204c0.28,-0.407 0.446,-0.61 0.446,-0.61l0.28,0.216l-0.433,0.598z"/>
  <path id="svg_156" fill="white" d="m307.442,134.578l-0.343,-0.076c0.014,-0.108 0.035,-0.214 0.064,-0.319l0.356,0.077l-0.077,0.318zm0.433,-1.756l-0.343,-0.089c0.127,-0.484 0.267,-0.967 0.419,-1.438l0.344,0.102c-0.204,0.471 -0.293,0.941 -0.42,1.425zm0.865,-2.838l-0.33,-0.114l0.496,-1.413l0.343,0.128c-0.178,0.458 -0.343,0.928 -0.509,1.399l0,0zm1.044,-2.786l-0.331,-0.14c0.191,-0.459 0.382,-0.929 0.573,-1.375l0.33,0.14c-0.186,0.45 -0.377,0.908 -0.572,1.375zm1.183,-2.736l-0.318,-0.14c0.204,-0.471 0.42,-0.916 0.636,-1.362l0.318,0.166l-0.636,1.336zm1.273,-2.672l-0.318,-0.166c0.241,-0.445 0.47,-0.891 0.712,-1.272l0.306,0.165l-0.7,1.273zm1.438,-2.545l-0.319,-0.179l0.764,-1.272l0.305,0.178l-0.75,1.273zm1.539,-2.545l-0.305,-0.191c0.293,-0.471 0.572,-0.891 0.814,-1.273l0.293,0.204l-0.802,1.26z"/>
  <path id="svg_157" fill="white" d="m307.137,136.079l-0.356,0c0,-0.241 0.102,-0.496 0.14,-0.738l0.356,0.077c-0.051,0.178 -0.102,0.42 -0.14,0.661z"/>
  <path id="svg_158" fill="white" d="m319.544,115.007l-0.344,0c0.089,-0.483 0.14,-0.738 0.14,-0.738l0.344,0l-0.14,0.738z"/>
  <path id="svg_159" fill="white" d="m317.711,132.86c0,-0.497 0,-1.006 0,-1.502l0.356,0c0,0.496 0,0.993 0,1.489l-0.356,0.013zm0.344,-2.991l-0.357,0c0,-0.509 0,-1.005 0,-1.501l0.357,0c0,0.517 0,1.018 0,1.501l0,0zm0.102,-2.965l-0.357,0c0,-0.509 0.064,-1.005 0.089,-1.488l0.357,0c0.025,0.483 -0.064,0.979 -0.089,1.488l0,0zm0.216,-2.977l-0.356,0c0,-0.509 0.089,-1.005 0.14,-1.489l0.356,0c-0.051,0.484 -0.102,0.98 -0.14,1.489zm0.305,-2.965l-0.356,0c0.068,-0.526 0.131,-1.022 0.191,-1.489l0.356,0c-0.063,0.484 -0.127,0.98 -0.191,1.489l0,0zm0.395,-2.952l-0.344,0c0.077,-0.547 0.153,-1.031 0.229,-1.476l0.357,0c-0.077,0.445 -0.153,0.941 -0.242,1.476l0,0z"/>
  <path id="svg_160" fill="white" d="m317.915,136.066c0,-0.254 0,-0.496 -0.064,-0.751l0.357,0c0,0.255 0,0.497 0,0.751l-0.293,0z"/>
  <path id="svg_161" fill="white" d="m312.189,141.093l0,-0.739l0.356,0l0,0.739l-0.356,0zm-0.089,-2.176l0,-0.573c0,-0.293 0,-0.573 0,-0.865l0.356,0c0,0.28 0,0.56 0,0.852l0,0.573l-0.356,0.013zm0.42,-2.851l-0.357,0c0,-0.483 0.064,-0.954 0.102,-1.425l0.357,0c-0.039,0.471 -0.077,0.942 -0.102,1.425l0,0zm0.242,-2.837l-0.357,0c0.064,-0.471 0.115,-0.955 0.191,-1.413l0.356,0c-0.076,0.458 -0.14,0.929 -0.19,1.413l0,0zm0.419,-2.812l-0.343,0c0.076,-0.476 0.165,-0.946 0.267,-1.413l0.344,0.076l-0.268,1.337zm0.573,-2.8l-0.343,-0.076c0.101,-0.471 0.216,-0.942 0.33,-1.387l0.357,0.089c-0.14,0.432 -0.242,0.891 -0.357,1.361l0.013,0.013zm0.713,-2.761l-0.344,-0.089c0.14,-0.471 0.267,-0.929 0.407,-1.375l0.344,0.102c-0.153,0.433 -0.28,0.878 -0.42,1.349l0.013,0.013zm0.852,-2.723l-0.343,-0.115c0.165,-0.471 0.318,-0.916 0.483,-1.349l0.331,0.128c-0.165,0.407 -0.331,0.852 -0.484,1.323l0.013,0.013zm0.98,-2.672l-0.331,-0.14l0.535,-1.273l0.33,0.14c-0.178,0.331 -0.356,0.776 -0.547,1.26l0.013,0.013zm1.12,-2.634l-0.331,-0.14c0.382,-0.84 0.623,-1.273 0.636,-1.273l0.318,0.165c-0.233,0.401 -0.445,0.813 -0.636,1.235l0.013,0.013z"/>
  <path id="svg_162" fill="#FFD200" d="m137.377,440.226c-0.165,-0.089 -0.318,-0.166 -0.471,-0.268c-2.415,-1.751 -4.969,-3.304 -7.635,-4.644c-0.106,-0.052 -0.208,-0.111 -0.305,-0.178c-0.788,1.217 -1.482,2.493 -2.074,3.817c2.111,1.919 4.385,3.652 6.795,5.179c0,0 1.705,-1.425 3.105,-2.354c0.159,-0.53 0.355,-1.049 0.585,-1.552l0,0z"/>
 </g>
</svg>