<svg width="174" height="137" viewBox="0 0 174 137" fill="none" xmlns="http://www.w3.org/2000/svg">
<path d="M31.1507 46.9004L31.1282 46.8555L31.1507 46.9004C36.6686 57.9922 36.2336 65.5287 35.5028 68.9991C42.4982 65.8871 42.9793 49.5672 28.2503 41.4253C28.2503 41.4253 28.2857 44.5617 24.4007 51.9039C20.5586 59.165 23.2821 68.9395 32.4471 69.4981C35.4268 56.0979 31.4828 47.5849 31.1507 46.9004Z" fill="#108F6E"/>
<path d="M51.1136 43.5509C51.1136 43.5392 51.1136 43.5284 51.1136 43.5167C51.1136 43.505 51.1136 43.5284 51.1136 43.5509C51.03 52.0609 48.3075 57.3261 46.7207 59.6853C52.185 58.3533 57.7843 46.8934 51.0482 39.3286C51.0482 39.3286 50.054 41.5472 45.1982 46.2479C40.3929 50.8989 38.9561 58.1327 44.61 59.6628C50.8532 50.5718 51.1072 44.0763 51.1136 43.5509Z" fill="#19614F"/>
<path d="M53.0432 62.7224H53.0711H53.0432C46.1946 63.1042 41.9861 65.1206 40.1057 66.2729C41.1171 62.5779 50.2789 58.4034 56.4429 62.6072C56.4429 62.6072 54.6686 63.3552 50.9379 66.7738C47.2479 70.1544 41.4418 71.3887 40.1496 67.6771C47.3957 63.1648 52.6221 62.7488 53.0432 62.7224Z" fill="#27AE60"/>
<path d="M66.4501 64.9554C66.4488 64.4201 66.2142 63.9072 65.798 63.5295C65.3818 63.1518 64.8179 62.9402 64.2306 62.9414C63.6432 62.9426 63.0804 63.1563 62.666 63.5357C62.2516 63.915 62.0195 64.4289 62.0208 64.9642V64.9642L60.5454 73.6265C60.3738 74.6356 59.9773 75.602 59.3805 76.4661C58.7837 77.3303 57.9991 78.074 57.0751 78.6515L50.2393 82.9255L54.8358 76.596C54.9144 76.5066 54.984 76.4108 55.0436 76.3099C55.2651 75.9275 55.333 75.4866 55.2357 75.0634C55.1385 74.6402 54.882 74.2613 54.5108 73.9921C54.1395 73.7229 53.6768 73.5803 53.2025 73.5889C52.7281 73.5976 52.272 73.757 51.9129 74.0396V74.0396L45.2808 79.5733C43.8629 80.7561 42.7306 82.1949 41.9559 83.7982C41.1811 85.4015 40.781 87.1341 40.7808 88.886V92.8319C40.7824 93.7831 41.0914 94.7128 41.6694 95.5049C42.2473 96.2969 43.0685 96.9162 44.0304 97.2854C44.9923 97.6546 46.0522 97.7573 47.0777 97.5807C48.1033 97.4042 49.049 96.9561 49.7968 96.2926L63.5561 85.9106C64.4613 85.227 65.1899 84.3698 65.6899 83.4001C66.19 82.4304 66.4491 81.3722 66.449 80.3008V64.9564L66.4501 64.9554Z" fill="#333333"/>
<path d="M12.7039 64.8099C12.7044 64.5448 12.7623 64.2825 12.8741 64.0378C12.9859 63.7931 13.1495 63.5709 13.3555 63.3838C13.5616 63.1968 13.806 63.0485 14.075 62.9476C14.3439 62.8466 14.632 62.7949 14.9228 62.7954C15.2136 62.7959 15.5015 62.8486 15.77 62.9505C16.0384 63.0525 16.2823 63.2016 16.4875 63.3893C16.6928 63.5771 16.8554 63.7999 16.9662 64.045C17.077 64.2901 17.1337 64.5526 17.1331 64.8177V64.8177L18.6085 73.48C18.7798 74.4897 19.1761 75.4568 19.7729 76.3216C20.3698 77.1865 21.1545 77.9309 22.0789 78.5089L28.9146 82.782L24.3214 76.4515C24.2406 76.3622 24.1689 76.2664 24.1071 76.1654C23.8868 75.7831 23.8197 75.3428 23.9173 74.9204C24.0149 74.4979 24.2712 74.1196 24.6419 73.8508C25.0126 73.582 25.4746 73.4395 25.9482 73.4477C26.4219 73.456 26.8775 73.6145 27.2367 73.896V73.896L33.8699 79.4307C35.288 80.6135 36.4204 82.0522 37.1951 83.6555C37.9698 85.2588 38.3699 86.9915 38.3699 88.7434V92.6903C38.371 93.5756 38.1052 94.4441 37.6016 95.2012C37.0981 95.9582 36.3761 96.5747 35.5144 96.9833C34.6527 97.3919 33.6844 97.577 32.7152 97.5184C31.746 97.4598 30.813 97.1597 30.0181 96.6509C29.7823 96.5004 29.5602 96.3329 29.3539 96.15L15.5978 85.7642C14.6926 85.0807 13.964 84.2237 13.464 83.2542C12.964 82.2847 12.7048 81.2265 12.7049 80.1553V64.8099H12.7039Z" fill="#333333"/>
<path d="M96.1392 53.1019C95.3971 53.1019 95.0264 52.7806 95.0271 52.1381C95.0278 51.4956 95.3985 51.1743 96.1392 51.1743C96.8807 51.1743 97.2517 51.4956 97.2525 52.1381C97.2532 52.7806 96.8821 53.1019 96.1392 53.1019ZM96.75 57.0264V73.0602H95.5253V57.0264H96.75Z" fill="#010101" stroke="#333333" stroke-width="2.03" stroke-miterlimit="10"/>
<path d="M108.419 50.4956V51.4955C107.715 51.4845 107.016 51.6058 106.366 51.8517C105.715 52.0977 105.128 52.4631 104.639 52.9251C103.603 53.8781 103.085 55.0802 103.084 56.5312V65.922H108.458V66.921H103.084V73.0601H101.856V56.5293C101.856 54.7716 102.496 53.3258 103.775 52.1918C105.055 51.0577 106.603 50.4924 108.419 50.4956Z" fill="#010101" stroke="#333333" stroke-width="2.03" stroke-miterlimit="10"/>
<path d="M125.418 56.9941H126.643V73.0602H125.415V69.8114C124.11 72.2389 121.884 73.453 118.738 73.4537C116.589 73.4537 114.785 72.7633 113.327 71.3826C111.869 70.0018 111.14 68.3236 111.14 66.3478V56.9941H112.368V66.3478C112.347 67.9434 113.016 69.4825 114.229 70.6326C115.471 71.8474 116.975 72.4547 118.741 72.4547C120.507 72.4547 122.061 71.8477 123.403 70.6336C124.746 69.4195 125.418 67.9912 125.418 66.3488V56.9941Z" fill="#010101" stroke="#333333" stroke-width="2.03" stroke-miterlimit="10"/>
<path d="M134.627 57.5653C133.977 57.5602 133.347 57.7765 132.862 58.1717C132.619 58.3532 132.424 58.5822 132.291 58.8418C132.158 59.1015 132.091 59.3851 132.094 59.6716C132.094 60.2673 132.382 60.8147 132.958 61.314C133.584 61.8479 134.28 62.31 135.03 62.6899C135.836 63.1059 136.648 63.5521 137.467 64.0287C138.287 64.5065 138.997 65.125 139.558 65.8498C140.136 66.5904 140.438 67.4801 140.421 68.3886C140.421 69.7928 139.852 70.9887 138.715 71.9762C137.577 72.9638 136.201 73.4579 134.589 73.4585C133.594 73.4645 132.613 73.25 131.73 72.8336C130.847 72.4163 130.201 71.8629 129.793 71.1735V69.454C130.764 71.4544 132.325 72.4547 134.474 72.4547C135.804 72.4547 136.923 72.0739 137.832 71.3122C138.74 70.5506 139.194 69.6994 139.194 68.7587C139.194 67.8193 138.906 67.0281 138.33 66.3849C137.742 65.7313 137.034 65.1751 136.239 64.7405C135.42 64.2887 134.608 63.8425 133.802 63.4018C133.016 62.9773 132.316 62.4341 131.73 61.7955C131.159 61.1764 130.852 60.3904 130.866 59.5818C130.866 58.7355 131.231 58.0214 131.96 57.4394C132.69 56.8574 133.63 56.5645 134.781 56.5605C135.932 56.5605 136.917 56.9772 137.735 57.8104V59.2752C136.917 58.1353 135.881 57.5653 134.627 57.5653Z" fill="#010101" stroke="#333333" stroke-width="2.03" stroke-miterlimit="10"/>
<path d="M161.296 56.9941V73.0601H160.071V69.0566C159.373 70.3967 158.25 71.5158 156.849 72.2702C155.462 73.044 153.867 73.452 152.241 73.4488C149.734 73.4488 147.585 72.6214 145.795 70.9666C144.004 69.3117 143.109 67.3305 143.109 65.0227C143.109 62.713 144.004 60.7314 145.795 59.0779C147.585 57.4244 149.734 56.5973 152.241 56.5967C153.879 56.5967 155.445 57.0013 156.942 57.8104C158.438 58.6196 159.481 59.6928 160.071 61.0299V56.9941H161.296ZM144.335 65.0628C144.335 67.0626 145.121 68.7942 146.693 70.2576C148.264 71.721 150.133 72.4534 152.298 72.4547C154.459 72.4547 156.307 71.7227 157.843 70.2586C159.379 68.7945 160.146 67.0571 160.145 65.0462C160.145 63.0346 159.371 61.2909 157.824 59.8152C156.276 58.3394 154.428 57.6015 152.279 57.6015C150.13 57.6015 148.269 58.3456 146.696 59.8337C145.123 61.3219 144.336 63.0649 144.335 65.0628Z" fill="#010101" stroke="#333333" stroke-width="2.03" stroke-miterlimit="10"/>
<path d="M97.2482 50.4656C97.2482 51.6667 96.1318 52.6705 96.1318 52.6705C96.1318 52.6705 95.0143 51.6667 95.0143 50.4656C95.0143 49.2646 96.1318 48.3174 96.1318 48.3174C96.1318 48.3174 97.2482 49.2646 97.2482 50.4656Z" fill="#333333" stroke="#333333" stroke-width="5.68493" stroke-miterlimit="10"/>
<path d="M105 76.9785H116.814V77.7363H106.451L106.429 86.4054L115.071 86.3205V88.0586L106.43 88.1416L106.452 95.8138H116.816V96.5735H105V76.9785Z" fill="#391A51" stroke="#333333" stroke-width="2" stroke-miterlimit="10"/>
<path d="M130.12 97.1257H129.724C126.914 97.1257 124.498 96.1167 122.478 94.0987C120.458 92.0806 119.448 89.7159 119.448 87.0045C119.448 84.2932 120.473 81.9496 122.522 79.9739C124.571 77.9981 127.089 77.0112 130.076 77.0132C133.062 77.0132 135.609 78.1065 137.717 80.2932V82.4659C136.852 81.197 135.67 80.1316 134.269 79.3558C132.879 78.5961 131.422 78.2162 129.9 78.2162C127.471 78.2162 125.356 79.0895 123.555 80.8361C121.754 82.5827 120.854 84.6616 120.857 87.0729C120.857 89.4867 121.758 91.567 123.558 93.3136C125.359 95.0602 127.474 95.9331 129.903 95.9325C131.425 95.9325 132.882 95.5491 134.273 94.7822C135.683 93.9988 136.865 92.9176 137.72 91.6301V93.8457C135.669 96.0331 133.135 97.1264 130.12 97.1257Z" fill="#391A51" stroke="#333333" stroke-width="2.03" stroke-miterlimit="10"/>
<path d="M143.382 93.9937C141.365 91.9645 140.357 89.6021 140.357 86.9064C140.357 84.2106 141.382 81.8749 143.431 79.8992C145.48 77.9254 147.946 76.9388 150.83 76.9395C153.715 76.9401 156.174 77.9267 158.208 79.8992C160.243 81.8736 161.261 84.2172 161.261 86.9298C161.261 89.6425 160.265 92.0065 158.275 94.022C156.283 96.04 153.867 97.0491 151.029 97.0491H150.633C147.82 97.0426 145.403 96.0241 143.382 93.9937ZM159.85 87.004C159.85 84.6051 158.964 82.5252 157.194 80.7643C155.423 79.0034 153.308 78.1246 150.848 78.1278C148.389 78.1278 146.259 79.0151 144.458 80.7897C142.656 82.5643 141.756 84.6445 141.758 87.0304C141.758 89.4163 142.658 91.4822 144.458 93.2281C146.258 94.9741 148.395 95.8474 150.869 95.848C153.343 95.848 155.459 94.9747 157.215 93.2281C158.971 91.4815 159.85 89.4068 159.85 87.004Z" fill="#391A51" stroke="#333333" stroke-width="2" stroke-miterlimit="10"/>
<path d="M152.09 87.4749C152.09 88.9074 150.811 90.1055 150.811 90.1055C150.811 90.1055 149.533 88.9074 149.533 87.4749C149.533 86.0424 150.811 84.9165 150.811 84.9165C150.811 84.9165 152.09 86.0414 152.09 87.4749Z" fill="#391A51" stroke="#333333" stroke-width="3.03196" stroke-miterlimit="10"/>
<path d="M76.3372 54.4209H77.655C82.2679 54.4209 85.9879 55.4459 88.815 57.4958C91.6422 59.5458 93.0561 62.0039 93.0568 64.8702C93.0568 67.7345 91.6497 70.1881 88.8354 72.2309C86.0211 74.2737 82.2943 75.2938 77.655 75.2912H76.3372V54.4209ZM77.9839 55.2558H77.655V74.429H77.9839C81.9918 74.429 85.2797 73.4922 87.8475 71.6187C90.4154 69.7451 91.699 67.4956 91.6982 64.8702C91.6982 62.2454 90.4147 59.9868 87.8475 58.0944C85.2804 56.202 81.9925 55.2558 77.9839 55.2558Z" fill="#010101" stroke="#333333" stroke-width="2.03" stroke-miterlimit="10"/>
</svg>
